<svg width="32" height="33" viewBox="0 0 32 33" fill="none" xmlns="http://www.w3.org/2000/svg">
<path d="M2.44747 32.8549C2.21747 32.6849 2.15747 32.4649 2.15747 32.1849C2.15747 27.5549 2.15747 22.9349 2.15747 18.3049C2.15747 18.2049 2.15747 18.0949 2.17747 17.9949C2.22747 17.7449 2.38747 17.6149 2.64747 17.6249C2.89747 17.6349 3.04747 17.7749 3.07747 18.0349C3.08747 18.1449 3.07747 18.2649 3.07747 18.3749C3.07747 22.7449 3.07747 27.1049 3.07747 31.4749V31.8949H9.33747V13.4349H3.10747C3.10747 13.5449 3.08747 13.6549 3.08747 13.7649C3.08747 14.4649 3.08747 15.1549 3.08747 15.8549C3.08747 16.2049 2.91747 16.4049 2.63747 16.4149C2.34747 16.4149 2.15747 16.2149 2.15747 15.8449C2.15747 15.1549 2.15747 14.4749 2.15747 13.7849C2.15747 13.6749 2.15747 13.5649 2.15747 13.4049C1.93747 13.4049 1.74747 13.4149 1.56747 13.4049C1.22747 13.3749 1.00747 13.1649 1.00747 12.8149C0.997469 12.3049 0.997469 11.7949 1.00747 11.2849C1.00747 10.9149 1.24747 10.6949 1.62747 10.6949C2.07747 10.6949 2.51747 10.6949 3.01747 10.6949C3.01747 10.3449 3.01747 10.0249 3.01747 9.69488C3.01747 9.08488 3.29747 8.79488 3.91747 8.79488C5.02747 8.79488 6.13747 8.79488 7.25747 8.79488C7.43747 8.79488 7.62747 8.76488 7.80747 8.70488C10.1675 7.90488 12.5175 7.08488 14.8775 6.28488C15.0875 6.21488 15.1675 6.11488 15.1575 5.89488C15.1475 4.48488 15.1575 3.06488 15.1575 1.65488C15.1575 1.55488 15.1575 1.44488 15.1575 1.34488C15.1775 1.10488 15.3275 0.924877 15.5475 0.944877C15.7175 0.954877 15.9475 1.07488 16.0175 1.20488C16.1075 1.38488 16.1975 1.41488 16.3675 1.41488C17.1075 1.41488 17.8475 1.41488 18.5775 1.41488C19.2475 1.41488 19.5675 1.93488 19.2675 2.53488C19.2675 2.53488 19.2675 2.55488 19.2475 2.56488C18.9575 2.92488 19.0075 3.26488 19.2475 3.65488C19.6075 4.25488 19.2675 4.79488 18.5775 4.79488C17.8675 4.79488 17.1675 4.79488 16.4575 4.79488C16.3475 4.79488 16.2375 4.79488 16.0875 4.79488C16.0875 5.24488 16.0775 5.65488 16.0975 6.06488C16.0975 6.13488 16.2575 6.23488 16.3575 6.26488C18.2975 6.93488 20.2375 7.60488 22.1875 8.26488C22.2775 8.29488 22.3675 8.32488 22.4475 8.35488C23.2475 8.70488 24.0875 8.83488 24.9675 8.78488C25.7375 8.74488 26.5075 8.77488 27.2775 8.78488C27.9475 8.78488 28.2175 9.06488 28.2175 9.73488C28.2175 10.0349 28.2175 10.3349 28.2175 10.6849C28.6175 10.6849 28.9975 10.6849 29.3775 10.6849C30.0775 10.6849 30.2275 10.8449 30.2275 11.5549C30.2275 11.9249 30.2275 12.3049 30.2275 12.6749C30.2275 13.1849 30.0175 13.3949 29.5175 13.4049C29.3875 13.4049 29.2475 13.4049 29.0775 13.4049V13.8349C29.0775 19.9249 29.0775 26.0149 29.0775 32.1049C29.0775 32.3949 29.0475 32.6649 28.7875 32.8449H2.44747V32.8549ZM12.7475 31.9049H18.4675V31.5449C18.4675 30.2249 18.4675 28.9049 18.4675 27.5849C18.4675 27.4949 18.4675 27.3949 18.4675 27.3049C18.4875 27.0549 18.6375 26.9049 18.8875 26.8749C19.1375 26.8549 19.3075 26.9849 19.3675 27.2249C19.3975 27.3349 19.3975 27.4549 19.3975 27.5649C19.3975 28.8949 19.3975 30.2249 19.3975 31.5549V31.8949H20.8975V13.4349H10.3275V31.8949H11.8175C11.8175 31.7549 11.8175 31.6249 11.8175 31.5049C11.8175 28.2549 11.8175 24.9949 11.8175 21.7449C11.8175 19.7549 13.2875 18.1749 15.2875 17.9549C17.1275 17.7549 18.9975 19.0549 19.2775 20.9549C19.4775 22.3449 19.3775 23.7749 19.3875 25.1849C19.3875 25.4549 19.1075 25.6449 18.8575 25.5949C18.5675 25.5349 18.4675 25.3349 18.4675 25.0449C18.4675 23.9449 18.4875 22.8449 18.4675 21.7349C18.4375 19.9349 16.8775 18.6249 15.1475 18.9149C13.6975 19.1649 12.7475 20.3349 12.7475 21.8849C12.7475 25.1049 12.7475 28.3249 12.7475 31.5549V31.9049ZM21.8775 13.4349V31.8949H28.1175V13.4349H21.8775ZM27.2575 9.72488H26.8875C25.8575 9.72488 24.8275 9.72488 23.7975 9.72488C23.6375 9.72488 23.4675 9.70488 23.3075 9.65488C20.8475 8.81488 18.3775 7.96488 15.9175 7.12488C15.7375 7.06488 15.5075 7.06488 15.3275 7.12488C13.1375 7.86488 10.9475 8.60488 8.75747 9.37488C8.04747 9.62488 7.34747 9.77488 6.59747 9.73488C5.82747 9.69488 5.05747 9.73488 4.28747 9.73488H3.95747V10.6849H27.2575V9.72488ZM29.2775 11.6449H1.92747V12.4549H29.2775V11.6449ZM16.0975 3.83488H18.3275C17.9075 3.32488 17.9475 2.84488 18.3175 2.36488H16.0975V3.83488Z" fill="#58595B"/>
<path d="M6.16747 26.4849C5.61747 26.4849 5.06747 26.4849 4.51747 26.4849C4.02747 26.4849 3.78747 26.2449 3.77747 25.7649C3.77747 25.1449 3.77747 24.5149 3.77747 23.8949C3.77747 23.4449 4.02747 23.1949 4.47747 23.1949C5.60747 23.1949 6.73747 23.1949 7.86747 23.1949C8.31747 23.1949 8.56747 23.4449 8.56747 23.8849C8.56747 24.5149 8.56747 25.1549 8.56747 25.7849C8.56747 26.2549 8.32747 26.4849 7.84747 26.4849C7.28747 26.4849 6.72747 26.4849 6.16747 26.4849ZM4.72747 25.5249H5.67747V24.1549H4.72747V25.5249ZM7.61747 25.5249V24.1449H6.65747V25.5249H7.61747Z" fill="#58595B"/>
<path d="M6.20747 14.5749C6.76747 14.5749 7.32747 14.5749 7.88747 14.5749C8.32747 14.5749 8.56747 14.8049 8.57747 15.2449C8.57747 15.8849 8.57747 16.5349 8.57747 17.1749C8.57747 17.5949 8.34747 17.8449 7.92747 17.8449C6.76747 17.8549 5.59747 17.8549 4.43747 17.8449C4.03747 17.8449 3.79747 17.5949 3.78747 17.1949C3.77747 16.5449 3.77747 15.8849 3.78747 15.2349C3.78747 14.8049 4.05747 14.5849 4.49747 14.5749C5.06747 14.5749 5.63747 14.5749 6.21747 14.5749H6.20747ZM6.66747 16.9049H7.62747V15.5349H6.66747V16.9049ZM5.69747 16.9049V15.5249H4.74747V16.9049H5.69747Z" fill="#58595B"/>
<path d="M6.17747 30.7949C5.62747 30.7949 5.07747 30.7949 4.52747 30.7949C4.02747 30.7949 3.78747 30.5649 3.77747 30.0849C3.77747 29.4649 3.77747 28.8349 3.77747 28.2149C3.77747 27.7649 4.02747 27.5149 4.47747 27.5149C5.60747 27.5149 6.74747 27.5149 7.87747 27.5149C8.33747 27.5149 8.56747 27.7549 8.56747 28.2149C8.56747 28.8349 8.56747 29.4649 8.56747 30.0849C8.56747 30.5649 8.33747 30.7949 7.85747 30.7949C7.29747 30.7949 6.73747 30.7949 6.17747 30.7949ZM5.68747 28.4449C5.39747 28.4449 5.13747 28.4449 4.87747 28.4449C4.81747 28.4449 4.71747 28.5249 4.71747 28.5749C4.70747 28.9949 4.71747 29.4149 4.71747 29.8349H5.69747V28.4349L5.68747 28.4449ZM7.61747 28.4649H6.65747V29.8449H7.61747V28.4649Z" fill="#58595B"/>
<path d="M6.18747 18.8849C6.74747 18.8849 7.30747 18.8849 7.86747 18.8849C8.33747 18.8849 8.57747 19.1249 8.57747 19.5949C8.57747 20.2149 8.57747 20.8449 8.57747 21.4649C8.57747 21.9349 8.33747 22.1749 7.86747 22.1749C6.74747 22.1749 5.62747 22.1749 4.50747 22.1749C4.03747 22.1749 3.79747 21.9249 3.78747 21.4649C3.78747 20.8449 3.78747 20.2149 3.78747 19.5949C3.78747 19.1249 4.04747 18.8949 4.50747 18.8849C5.06747 18.8849 5.62747 18.8849 6.18747 18.8849ZM6.66747 19.8349V21.2149H7.61747V19.8149C7.37747 19.8149 7.14747 19.8149 6.91747 19.8149C6.83747 19.8149 6.75747 19.8149 6.65747 19.8349H6.66747ZM4.71747 19.8349C4.71747 20.0449 4.71747 20.2349 4.71747 20.4249C4.71747 21.0049 5.00747 21.2715 5.58747 21.2249C5.58747 21.2249 5.64747 21.2049 5.68747 21.1949V19.8249H4.71747V19.8349Z" fill="#58595B"/>
<path d="M25.0475 14.5749C25.6075 14.5749 26.1675 14.5749 26.7275 14.5749C27.1775 14.5749 27.4275 14.8049 27.4375 15.2649C27.4475 15.8949 27.4475 16.5349 27.4375 17.1649C27.4375 17.6049 27.1975 17.8449 26.7575 17.8549C25.6175 17.8649 24.4675 17.8649 23.3275 17.8549C22.8675 17.8549 22.6475 17.6149 22.6475 17.1449C22.6475 16.5349 22.6475 15.9149 22.6475 15.3049C22.6475 14.7949 22.8775 14.5749 23.3975 14.5749C23.9475 14.5749 24.4975 14.5749 25.0475 14.5749ZM26.4875 15.5249H25.5375V16.8949H26.4875V15.5249ZM23.5975 16.8849H24.5575V15.5149H23.5975V16.8849Z" fill="#58595B"/>
<path d="M25.0475 30.7949C24.4875 30.7949 23.9275 30.7949 23.3675 30.7949C22.8875 30.7949 22.6575 30.5649 22.6475 30.0949C22.6475 29.4649 22.6475 28.8249 22.6475 28.1949C22.6475 27.7749 22.8775 27.5249 23.2975 27.5249C24.4575 27.5149 25.6275 27.5149 26.7875 27.5249C27.1875 27.5249 27.4275 27.7749 27.4275 28.1849C27.4375 28.8349 27.4475 29.4949 27.4275 30.1449C27.4175 30.5749 27.1575 30.7949 26.7175 30.8049C26.1575 30.8049 25.5975 30.8049 25.0375 30.8049L25.0475 30.7949ZM23.5975 29.8349H24.5475V28.4649H23.5975V29.8349ZM26.5075 29.8349C26.5075 29.4049 26.5075 28.9949 26.5075 28.5849C26.5075 28.5349 26.4175 28.4449 26.3575 28.4449C26.0875 28.4349 25.8275 28.4449 25.5375 28.4449V29.8449H26.5075V29.8349Z" fill="#58595B"/>
<path d="M25.0375 26.4849C24.4975 26.4849 23.9575 26.4849 23.4175 26.4849C22.8775 26.4849 22.6575 26.2649 22.6475 25.7349C22.6475 25.1249 22.6475 24.5149 22.6475 23.8949C22.6475 23.4449 22.8875 23.1949 23.3375 23.1949C24.4775 23.1949 25.6175 23.1949 26.7575 23.1949C27.1875 23.1949 27.4275 23.4449 27.4375 23.8849C27.4475 24.5249 27.4475 25.1749 27.4375 25.8149C27.4375 26.2449 27.1775 26.4849 26.7475 26.4849C26.1775 26.4849 25.6075 26.4849 25.0375 26.4849ZM24.5575 25.5349V24.1449H23.6075V25.5349H24.5575ZM26.4875 25.5349V24.1549H25.5375V25.5349H26.4875Z" fill="#58595B"/>
<path d="M25.0275 18.8849C25.5875 18.8849 26.1475 18.8849 26.7075 18.8849C27.1875 18.8849 27.4375 19.1249 27.4375 19.6149C27.4375 20.2249 27.4375 20.8349 27.4375 21.4549C27.4375 21.9349 27.1875 22.1749 26.6975 22.1749C25.5875 22.1749 24.4775 22.1749 23.3675 22.1749C22.8775 22.1749 22.6475 21.9349 22.6475 21.4449C22.6475 20.8349 22.6475 20.2249 22.6475 19.6049C22.6475 19.1149 22.8875 18.8849 23.3775 18.8849C23.9275 18.8849 24.4775 18.8849 25.0275 18.8849ZM24.5575 19.8449H23.6075V21.2149H24.5575V19.8449ZM25.5275 19.8449V21.2249H26.4775V19.8449H25.5275Z" fill="#58595B"/>
</svg>
