<svg width="32" height="32" viewBox="0 0 32 32" fill="none" xmlns="http://www.w3.org/2000/svg">
<path d="M-3.05176e-05 24.3925C0.459969 23.3325 0.919969 22.2825 1.36997 21.2225C1.68997 20.4925 2.00997 19.7525 2.29997 19.0125C2.43997 18.6425 2.66997 18.5025 3.05997 18.5225C3.55997 18.5525 4.05997 18.5325 4.55997 18.5225C4.63997 18.5225 4.77997 18.4625 4.79997 18.4025C5.15997 17.2425 5.81997 16.2725 6.74997 15.5025C5.98997 14.0925 5.77997 12.6825 6.83997 11.3725C7.71997 10.2725 8.89997 9.95252 10.27 10.4725C10.42 9.83252 10.58 9.21252 10.73 8.59252C10.84 8.16252 10.95 8.07252 11.4 8.06252C11.69 8.06252 12.04 8.15252 12.25 8.01252C12.43 7.89252 12.45 7.52252 12.54 7.26252C12.8 6.52252 13.22 5.88252 13.8 5.36252C13.98 5.20252 13.98 5.10252 13.87 4.89252C13.19 3.56252 13.52 2.01252 14.65 1.24252C15.43 0.722522 16.25 0.622522 17.1 1.06252C17.96 1.50252 18.44 2.22252 18.52 3.19252C18.57 3.81252 18.45 4.41252 18.16 4.97252C18.12 5.05252 18.12 5.21252 18.16 5.25252C18.99 6.00252 19.5 6.93252 19.73 8.06252C20.05 8.06252 20.37 8.06252 20.69 8.06252C21.09 8.06252 21.22 8.17252 21.31 8.57252C21.45 9.18252 21.59 9.80252 21.73 10.4225C23.14 9.97252 24.31 10.3225 25.16 11.4625C26.12 12.7525 25.91 14.1125 25.18 15.4725C25.2 15.4925 25.23 15.5425 25.27 15.5725C26.14 16.3125 26.75 17.2225 27.09 18.3125C27.14 18.4725 27.22 18.5225 27.37 18.5125C27.89 18.5125 28.41 18.5125 28.93 18.5125C29.25 18.5125 29.45 18.6225 29.58 18.9325C30.32 20.7025 31.08 22.4625 31.82 24.2325C31.87 24.3625 31.91 24.5125 31.91 24.6525C31.91 25.4625 31.91 26.2725 31.91 27.0825C31.91 27.5025 31.74 27.6725 31.32 27.6725C31.09 27.6725 30.87 27.6725 30.59 27.6725C30.59 27.8625 30.59 28.0325 30.59 28.2025C30.59 28.8525 30.59 29.5125 30.59 30.1625C30.59 30.5125 30.39 30.7225 30.09 30.7225C29.81 30.7225 29.62 30.5125 29.62 30.1725C29.62 29.3525 29.62 28.5325 29.62 27.6925H19.07C19.07 27.8525 19.07 28.0125 19.07 28.1725C19.07 28.8525 19.07 29.5225 19.07 30.2025C19.07 30.5425 18.88 30.7325 18.59 30.7325C18.3 30.7325 18.11 30.5425 18.11 30.2025C18.11 29.3725 18.11 28.5425 18.11 27.6625C17.88 27.6625 17.68 27.6625 17.48 27.6625C17 27.6625 16.84 27.5025 16.84 27.0325C16.84 26.0325 16.85 25.0325 16.85 24.0425C16.85 22.4325 16.85 20.8225 16.84 19.2125C16.84 18.6525 16.98 18.5025 17.54 18.5025C17.84 18.5025 18.21 18.6025 18.43 18.4725C18.64 18.3425 18.69 17.9625 18.8 17.6925C19.17 16.8625 19.71 16.1625 20.44 15.5325H11.51C12.45 16.3425 13.09 17.3225 13.41 18.5025C13.71 18.5025 13.99 18.5025 14.27 18.5025C14.97 18.5025 15.07 18.6125 15.07 19.3225C15.07 20.0225 15.07 20.7125 15.07 21.4125C15.07 23.2525 15.07 25.0925 15.07 26.9325C15.07 27.5325 14.94 27.6725 14.34 27.6725C14.17 27.6725 14.01 27.6725 13.79 27.6725C13.79 27.7925 13.79 27.9025 13.79 28.0125C13.79 28.7325 13.79 29.4425 13.79 30.1625C13.79 30.5325 13.62 30.7325 13.32 30.7325C13.01 30.7325 12.83 30.5325 12.83 30.1425C12.83 29.3325 12.83 28.5225 12.83 27.6825H2.29997C2.29997 27.7825 2.28997 27.8925 2.28997 28.0025C2.28997 28.6925 2.28997 29.3725 2.28997 30.0625C2.28997 30.4825 2.09997 30.7225 1.78997 30.7125C1.47997 30.7125 1.31997 30.4825 1.30997 30.0725C1.30997 29.2825 1.30997 28.4925 1.30997 27.6925C0.869969 27.6025 0.319969 27.9025 -3.05176e-05 27.3925V24.3925ZM14.09 19.5225C13.99 19.5225 13.92 19.5025 13.85 19.5025C10.37 19.5025 6.88997 19.5025 3.39997 19.5025C3.19997 19.5025 3.10997 19.5825 3.03997 19.7525C2.47997 21.1025 1.89997 22.4425 1.32997 23.7925C1.29997 23.8725 1.26997 23.9625 1.23997 24.0525H14.09V19.5225ZM30.71 24.0625C30.66 23.9325 30.63 23.8425 30.59 23.7625C30.03 22.4325 29.46 21.1125 28.9 19.7825C28.81 19.5625 28.69 19.5025 28.46 19.5025C25.03 19.5025 21.6 19.5025 18.17 19.5025C18.06 19.5025 17.95 19.5025 17.85 19.5125V24.0625H30.71ZM11.61 9.05252C11.48 9.58252 11.37 10.0925 11.23 10.6025C11.14 10.9225 11.11 11.1925 11.4 11.4425C11.51 11.5425 11.6 11.6925 11.65 11.8325C11.73 12.0625 11.87 12.1025 12.1 12.1025C14.67 12.1025 17.23 12.1025 19.8 12.1025C20.06 12.1025 20.21 12.0525 20.33 11.8025C20.44 11.5725 20.63 11.3825 20.78 11.1725C20.83 11.0925 20.89 10.9825 20.87 10.9025C20.74 10.2825 20.6 9.67252 20.46 9.05252H11.61ZM0.989969 25.0525V26.7225H14.08V25.0525H0.989969ZM17.85 26.7225H30.95V25.0625H17.85V26.7225ZM11.08 13.4625C11.09 12.4225 10.49 11.5825 9.58997 11.3025C8.81997 11.0725 7.93997 11.4125 7.45997 12.1425C6.71997 13.2525 7.19997 15.1125 8.37997 15.7225C8.96997 16.0325 9.52997 15.9625 10.04 15.5725C10.76 15.0225 11.05 14.2625 11.08 13.4625ZM24.84 13.4125C24.84 12.3125 24.1 11.3925 23.08 11.2425C22.17 11.1125 21.21 11.8025 20.94 12.7725C20.68 13.7125 21.07 14.9225 21.84 15.5325C22.51 16.0725 23.29 16.0525 23.94 15.4825C24.56 14.9325 24.84 14.2325 24.85 13.4125H24.84ZM11.92 14.5525H20.02L19.86 13.1325H12.08L11.92 14.5525ZM5.78997 18.5125H12.39C12.06 17.5725 11.54 16.8225 10.78 16.2425C9.60997 17.1025 8.75997 17.1025 7.38997 16.2525C6.62997 16.8325 6.09997 17.5825 5.78997 18.5025V18.5125ZM26.15 18.5325C25.83 17.5825 25.3 16.8425 24.55 16.2525C23.42 17.1125 22.29 17.1125 21.16 16.2525C20.4 16.8525 19.86 17.5925 19.56 18.5325H26.16H26.15ZM17.42 5.91252C16.49 6.58252 15.57 6.59252 14.64 5.91252C13.96 6.48252 13.51 7.17252 13.32 8.06252H18.75C18.54 7.17252 18.11 6.47252 17.42 5.91252ZM14.48 3.52252C14.5 4.12252 14.73 4.72252 15.28 5.16252C15.76 5.54252 16.32 5.55252 16.79 5.15252C17.38 4.65252 17.63 4.00252 17.55 3.23252C17.46 2.38252 16.72 1.73252 15.95 1.78252C15.13 1.84252 14.48 2.57252 14.48 3.52252Z" fill="#58595B"/>
</svg>
