<svg width="32" height="32" viewBox="0 0 32 32" fill="none" xmlns="http://www.w3.org/2000/svg">
<path d="M0.0320189 14.3344C0.0320189 14.3344 0.0640401 14.3024 0.0747135 14.2917C0.234814 13.5979 0.640403 13.1283 1.36619 13.0322C2.11333 12.9255 2.647 13.2777 3.0099 13.9608C3.56492 13.8327 4.13061 13.7047 4.68562 13.5659C4.74966 13.5446 4.82438 13.4271 4.84572 13.3418C5.05919 12.1463 5.43276 11.0043 6.0198 9.93695C6.09451 9.79819 6.09451 9.70213 5.98778 9.58473C5.79566 9.38193 5.62488 9.15779 5.44343 8.96567C5.1766 9.04038 4.92044 9.14712 4.66427 9.16846C4.10926 9.22183 3.67165 8.97634 3.38347 8.49604C3.09528 8.01573 3.10596 7.51408 3.40481 7.04446C3.693 6.60685 4.02387 6.17991 4.36542 5.77432C4.71764 5.35806 5.3367 5.2193 5.84902 5.41143C6.39337 5.60355 6.76694 6.1052 6.76694 6.70291C6.76694 6.91637 6.83097 7.02311 7.0231 7.08715C7.28993 7.18321 7.53542 7.30062 7.7062 7.37533C8.56007 6.72425 9.37125 6.11587 10.1824 5.49681C10.2465 5.44345 10.2998 5.32604 10.2892 5.25132C10.2251 4.739 10.1504 4.22668 10.065 3.68233C9.95828 3.68233 9.85155 3.68233 9.75549 3.68233C9.05104 3.68233 8.49603 3.2554 8.32525 2.5723C8.17582 1.94257 8.464 1.25947 9.08306 0.981964C9.78751 0.672436 10.5026 0.394927 11.2284 0.149439C11.7941 -0.0426822 12.4238 0.224153 12.7654 0.704456C13.1069 1.19543 13.1176 1.84651 12.7654 2.34816C12.7013 2.44422 12.6266 2.52961 12.5412 2.63634C12.8614 3.0953 13.171 3.55425 13.5019 4.01321C13.5445 4.07725 13.6833 4.10927 13.7687 4.0986C14.4304 4.02388 15.0922 3.94917 15.7433 3.85311C15.8287 3.84244 15.9247 3.74637 15.9781 3.67166C16.0528 3.55425 16.1062 3.42617 16.1168 3.29809C16.1275 3.19136 16.1062 3.0526 16.0421 2.98856C15.4551 2.39085 15.2843 1.64372 15.6152 0.971291C15.9567 0.27752 16.6932 -0.0960492 17.515 0.0213582C17.7072 0.0533784 17.91 0.0747252 18.1021 0.106745C18.8279 0.234826 19.3189 0.661762 19.5003 1.36621C19.6924 2.092 19.4363 2.68971 18.8599 3.15934C18.7745 3.23405 18.7105 3.37281 18.7105 3.49021C18.7318 4.14129 18.7532 4.10927 19.3722 4.33341C20.0767 4.58957 20.7598 4.88843 21.4429 5.17661C21.603 5.25132 21.7097 5.262 21.8591 5.13392C22.2434 4.80304 22.649 4.49351 23.0439 4.16264C22.7664 3.78907 22.5956 3.40483 22.6703 2.95654C22.8411 1.89988 24.0045 1.35553 24.8797 1.96392C25.4988 2.39085 26.0751 2.87116 26.6408 3.36213C27.1104 3.76772 27.2172 4.46149 26.9503 5.01651C26.6728 5.5822 26.1071 5.9024 25.4667 5.80634C25.2426 5.77432 25.1572 5.84903 25.0718 6.03048C24.9437 6.35068 24.7836 6.64954 24.6449 6.96974C24.5488 7.20456 24.3567 7.41802 24.5915 7.70621C24.6556 7.79159 24.5595 8.1118 24.4421 8.20786C24.3247 8.30392 24.0258 8.31459 23.9084 8.21853C23.4815 7.88765 23.2787 7.62082 23.5562 7.04446C23.8764 6.3827 24.1752 5.71028 24.4848 5.03786C24.6876 4.61092 24.9117 4.53621 25.328 4.78169C25.6055 4.9418 25.8937 4.8991 26.0538 4.67496C26.2139 4.45082 26.1605 4.16264 25.915 3.95984C25.4347 3.5756 24.9544 3.19136 24.4741 2.81779C24.1966 2.59365 23.8764 2.61499 23.695 2.83914C23.5028 3.07395 23.5562 3.36213 23.8444 3.59695C23.9191 3.66099 23.9938 3.71435 24.0578 3.76772C24.3033 3.99186 24.3247 4.28004 24.0792 4.49351C23.4174 5.04853 22.745 5.59287 22.0726 6.12654C21.8484 6.30799 21.5923 6.29732 21.3361 6.15856C20.4075 5.63557 19.4256 5.25132 18.3796 5.01651C18.0914 4.95247 17.8993 4.76035 17.8673 4.46149C17.8032 3.99186 17.7499 3.51156 17.6965 3.04193C17.6645 2.76442 17.8032 2.59365 18.0487 2.48691C18.4543 2.32681 18.6464 2.02796 18.5931 1.68641C18.5504 1.33419 18.2835 1.06735 17.8886 1.00331C17.6645 0.960617 17.4403 0.939271 17.2055 0.928597C16.8106 0.90725 16.4691 1.16341 16.3837 1.50496C16.2983 1.85718 16.4691 2.18806 16.832 2.36951C17.2269 2.56163 17.2909 2.72173 17.1415 3.14866C17.0134 3.52223 16.8853 3.8958 16.7466 4.2587C16.6078 4.63227 16.4157 4.74967 16.0208 4.78169C15.2203 4.86708 14.4091 4.96314 13.6086 5.06988C13.3097 5.11257 13.0642 5.04853 12.8935 4.80304C12.4132 4.11994 11.9435 3.43685 11.4739 2.75375C11.2711 2.46557 11.3565 2.19873 11.666 2.02796C11.7087 2.00661 11.7621 1.98526 11.8048 1.95324C12.0183 1.80382 12.125 1.60102 12.0289 1.33419C11.9329 1.0887 11.6874 0.949944 11.4205 1.046C10.7801 1.28082 10.1397 1.52631 9.49933 1.79314C9.23249 1.89988 9.1471 2.17738 9.24316 2.42287C9.33922 2.66836 9.57404 2.78577 9.85155 2.72173C9.88357 2.72173 9.90492 2.70038 9.93694 2.68971C10.6841 2.44422 10.8228 2.52961 10.9296 3.30877C11.0256 3.99186 11.1324 4.66429 11.2391 5.34738C11.3031 5.72095 11.1857 5.99846 10.8548 6.19058C9.93693 6.71358 9.12576 7.37533 8.39996 8.14382C8.11178 8.45334 7.88764 8.48536 7.5034 8.32526C7.0231 8.12247 6.55347 7.91967 6.07316 7.70621C5.67825 7.53543 5.60354 7.34331 5.76364 6.93772C5.8597 6.69223 5.82767 6.47877 5.59286 6.34001C5.34737 6.19058 5.13391 6.2653 4.96313 6.47877C4.71764 6.79897 4.47215 7.11917 4.22667 7.45004C4.04522 7.70621 4.07724 7.98371 4.28003 8.14382C4.48283 8.29324 4.73899 8.23988 4.94179 8.01573C5.28333 7.63149 5.51815 7.63149 5.85969 8.01573C6.20124 8.41065 6.53212 8.80557 6.87367 9.20048C7.11916 9.47799 7.14051 9.76617 6.95906 10.0864C6.29731 11.2498 5.88104 12.4879 5.68892 13.8114C5.64623 14.1209 5.47545 14.3237 5.16593 14.3984C4.36542 14.5905 3.56492 14.7827 2.76441 14.9534C2.39084 15.0388 2.19872 14.8787 2.13468 14.5052C2.07064 14.1209 1.85717 13.9181 1.51562 13.9395C1.20609 13.9501 0.971281 14.185 0.960608 14.5479C0.939261 15.1456 0.939259 15.754 0.949932 16.3623C0.949932 16.6825 1.19542 16.9174 1.49428 16.9387C1.78246 16.96 2.04929 16.7359 2.11333 16.4264C2.11333 16.405 2.11333 16.3837 2.11333 16.3623C2.20939 15.5405 2.26276 15.4978 3.09529 15.6899C3.75704 15.8393 4.40811 15.9888 5.06987 16.1382C5.43276 16.2236 5.6569 16.4264 5.6996 16.8106C5.73162 17.0668 5.79566 17.3229 5.83835 17.5791C5.88104 17.8459 5.73162 18.0701 5.4968 18.1341C5.24064 18.1982 5.0165 18.0487 4.93111 17.7712C4.93111 17.7499 4.92044 17.7285 4.92044 17.7072C4.95246 17.0881 4.55754 16.9173 4.03454 16.864C3.70367 16.8213 3.38347 16.7252 3.05259 16.6398C3.02057 16.7146 2.99922 16.7786 2.9672 16.8426C2.72172 17.4724 2.14535 17.878 1.50495 17.8673C0.843198 17.8673 0.288183 17.4403 0.0640419 16.7786C0.0426951 16.7252 0.0213468 16.6825 0 16.6398C0 15.8714 0 15.1029 0 14.3344H0.0320189Z" fill="#58595B"/>
<path d="M26.9824 9.65944C27.0144 9.52068 27.0357 9.34991 27.0891 9.18981C27.2919 8.5494 27.8682 8.1118 28.5513 8.05843C29.2024 8.01573 29.8322 8.37863 30.1203 8.98701C30.3018 9.3926 30.4619 9.80887 30.59 10.2358C30.7821 10.8869 30.5259 11.5807 29.9923 11.9862C29.4693 12.3812 28.7435 12.4345 28.1778 12.061C27.9536 11.9115 27.8149 11.9649 27.6334 12.093C27.2172 12.3918 27.2385 12.3812 27.3026 12.8935C27.4093 13.7047 27.484 14.5265 27.548 15.3377C27.5587 15.5191 27.6121 15.6152 27.7829 15.6792C28.2418 15.8607 28.7008 16.0742 29.1597 16.2769C29.2558 16.1275 29.3305 15.9781 29.4372 15.85C29.8428 15.3377 30.5579 15.1776 31.1557 15.4444C31.7427 15.7113 32.0949 16.3623 31.9775 17.0134C31.8601 17.6325 31.7427 18.2622 31.6146 18.8813C31.4652 19.6284 30.9422 20.1194 30.2484 20.1621C29.5867 20.2048 29.0423 19.7885 28.7862 19.0734C28.7755 19.0307 28.7541 18.9987 28.7328 18.9453C28.1884 18.9666 27.6334 18.988 27.0891 19.02C27.0144 19.02 26.897 19.1054 26.8649 19.1801C26.6088 19.7458 26.3633 20.3115 26.0965 20.9092C26.1605 20.9946 26.2566 21.0907 26.3313 21.1974C26.5661 21.5389 26.7902 21.7417 27.3026 21.6136C27.943 21.4429 28.5087 21.7524 28.8715 22.3181C29.2451 22.8945 29.2344 23.5028 28.8715 24.0792C28.7328 24.3033 28.562 24.5275 28.3806 24.7196C27.9216 25.2213 27.3346 25.4027 26.6835 25.2106C26.0217 25.0185 25.6268 24.5488 25.5521 23.8657C25.5201 23.5882 25.392 23.4815 25.1572 23.3961C24.4421 23.0972 24.4634 23.1079 23.8871 23.5989C23.3641 24.0472 22.7984 24.4634 22.2327 24.8797C22.0939 24.9758 22.0299 25.0612 22.0619 25.2319C22.158 25.7336 22.2327 26.2352 22.3181 26.7582C22.5102 26.7582 22.6916 26.7369 22.8731 26.7582C23.5242 26.8543 23.9831 27.3239 24.0899 27.9643C24.1859 28.5407 23.8871 29.1918 23.3214 29.4479C22.6276 29.7681 21.9125 30.0563 21.1867 30.3018C20.6103 30.5046 19.9699 30.2378 19.6177 29.7361C19.2655 29.2238 19.2655 28.5727 19.6604 28.0817C19.8205 27.8896 19.7992 27.7615 19.6604 27.5801C19.3936 27.2385 19.1588 26.865 18.8919 26.5234C18.8386 26.4487 18.6891 26.3847 18.5931 26.406C17.1201 26.7155 15.6472 26.7582 14.1636 26.5127C14.0889 26.5021 13.9715 26.5341 13.9288 26.5875C13.5766 27.1104 13.2457 27.6441 12.8935 28.1991C13.5339 28.7328 13.5872 29.4159 13.4378 30.163C13.2884 30.9529 12.6053 31.4545 11.8368 31.2197C11.1003 30.9956 10.3745 30.7394 9.6701 30.4405C9.00835 30.163 8.64545 29.4052 8.76286 28.6794C8.88027 27.9643 9.47798 27.42 10.2144 27.3346C10.2892 27.3346 10.3532 27.3132 10.4599 27.3026C10.5346 26.6622 10.6094 26.0218 10.6734 25.3814C10.6734 25.328 10.588 25.2426 10.524 25.2106C9.57404 24.6769 8.72017 24.0258 7.95168 23.2574C7.88764 23.1933 7.72754 23.1613 7.63148 23.1933C7.20455 23.3534 6.77761 23.5242 6.36134 23.7163C6.28663 23.7483 6.21192 23.8764 6.20125 23.9618C6.15855 24.7089 5.76363 25.264 5.12323 25.4454C4.47215 25.6375 3.8104 25.3814 3.38347 24.773C3.21269 24.5382 3.05259 24.2927 2.88182 24.0579C2.45488 23.4175 2.47623 22.6917 2.93518 22.1473C3.37279 21.6243 4.06657 21.4856 4.74966 21.7737C4.78168 21.7844 4.82438 21.8058 4.86707 21.8271C5.20862 21.4429 5.53949 21.08 5.85969 20.6957C5.91306 20.6317 5.91306 20.4929 5.88104 20.3969C5.80633 20.1834 5.68892 19.9806 5.59286 19.7778C5.46478 19.479 5.55017 19.2228 5.79566 19.1161C6.04114 18.9987 6.28663 19.1054 6.43606 19.3829C6.59616 19.6924 6.73491 20.002 6.89502 20.3008C7.0231 20.5783 6.99108 20.8238 6.79895 21.0586C6.2973 21.635 5.79565 22.2007 5.294 22.7664C5.04852 23.0332 4.8137 23.0332 4.53619 22.7877C4.24801 22.5209 3.93849 22.4889 3.70367 22.7023C3.46886 22.9051 3.44751 23.204 3.6503 23.5242C3.82107 23.7803 3.99185 24.0258 4.16263 24.2713C4.3761 24.5702 4.67495 24.6449 4.95246 24.4955C5.20862 24.3567 5.29401 24.0792 5.18727 23.7377C5.06987 23.3854 5.15525 23.1826 5.4968 23.0439C6.19057 22.7557 6.88434 22.4782 7.56744 22.19C7.87697 22.0619 8.15448 22.1153 8.38929 22.3608C9.21114 23.2467 10.1611 23.9618 11.2284 24.5275C11.5166 24.6769 11.6554 24.9117 11.6127 25.2426C11.5166 26.1071 11.4312 26.9824 11.3245 27.8469C11.2711 28.2632 11.0576 28.3806 10.6414 28.2845C10.1931 28.1885 9.81953 28.3592 9.70212 28.7328C9.57404 29.117 9.78751 29.4799 10.2358 29.6507C10.7801 29.8535 11.3245 30.0563 11.8688 30.2484C12.2958 30.3979 12.4238 30.3231 12.4986 29.8749C12.5199 29.7254 12.5626 29.5653 12.5519 29.4159C12.5412 29.117 12.3491 28.9356 12.0823 28.8075C11.7194 28.6367 11.6447 28.3806 11.8475 28.0497C12.3064 27.3132 12.7867 26.5768 13.2457 25.8403C13.4698 25.4881 13.7794 25.4774 14.1423 25.5201C14.8254 25.5948 15.5084 25.7122 16.1915 25.6909C16.9707 25.6695 17.7605 25.5308 18.5397 25.4134C19.052 25.328 19.2121 25.36 19.5217 25.7869C19.9486 26.3847 20.3862 26.9824 20.8025 27.5908C21.0693 27.9643 21.0053 28.1991 20.621 28.4233C20.3222 28.594 20.2154 28.8289 20.3328 29.085C20.4502 29.3625 20.7064 29.4586 21.0373 29.3305C21.6136 29.1064 22.1793 28.8822 22.745 28.6474C23.0866 28.5087 23.2146 28.2312 23.1079 27.9643C22.9905 27.6868 22.7237 27.5908 22.3714 27.7188C22.2754 27.7509 22.1793 27.7935 22.0833 27.8256C21.7844 27.911 21.5282 27.7722 21.4749 27.4733C21.3255 26.6195 21.1867 25.7763 21.0479 24.9224C21.0053 24.6556 21.1227 24.4314 21.3575 24.2927C22.2861 23.7377 23.1079 23.0652 23.8444 22.2754C24.0472 22.0513 24.314 22.0086 24.5915 22.126C25.1145 22.3501 25.6375 22.5849 26.1605 22.8091C26.4167 22.9265 26.5021 23.1186 26.4594 23.3961C26.3953 23.8657 26.5127 24.1326 26.8543 24.2713C27.1745 24.4101 27.4947 24.2927 27.7722 23.9404C27.8789 23.8124 27.9857 23.6843 28.071 23.5349C28.2418 23.2574 28.1778 22.8945 27.9536 22.681C27.7188 22.4568 27.3666 22.4248 27.0891 22.6063C26.6088 22.9051 26.5127 22.8838 26.1498 22.4568C25.851 22.094 25.5414 21.7417 25.2426 21.3788C24.9864 21.0693 24.9758 20.8558 25.1465 20.4929C25.4454 19.8525 25.7442 19.2121 26.0218 18.5717C26.1498 18.2622 26.3526 18.0808 26.6942 18.0701C27.4733 18.0381 28.2525 17.9954 29.0316 17.9633C29.5013 17.942 29.6507 18.1128 29.64 18.5717C29.6294 18.924 29.7895 19.1588 30.067 19.1908C30.3445 19.2335 30.5686 19.0307 30.6433 18.6998C30.7607 18.1021 30.8781 17.4937 30.9956 16.896C31.0596 16.5651 30.8995 16.3196 30.6113 16.2449C30.3338 16.1809 30.0883 16.3517 30.0136 16.6825C29.9923 16.7786 29.9709 16.8853 29.9496 16.9921C29.8642 17.3229 29.5973 17.4724 29.2878 17.3443C28.498 17.0134 27.7188 16.6719 26.9503 16.3196C26.7048 16.2129 26.5661 15.9994 26.5768 15.7219C26.6195 14.5905 26.4807 13.4805 26.2032 12.3918C26.1285 12.125 26.2245 11.8902 26.438 11.7301C26.8543 11.4312 27.2705 11.143 27.6975 10.8655C27.943 10.7054 28.1671 10.7588 28.3592 10.9829C28.6688 11.3458 28.9783 11.4312 29.3092 11.2498C29.64 11.0683 29.7361 10.7054 29.5867 10.2678C29.4799 9.97964 29.3839 9.70213 29.2665 9.42462C29.1064 9.05105 28.7328 8.88028 28.3699 8.99769C28.0283 9.1151 27.8576 9.45664 27.9323 9.85156C28.0177 10.2571 27.8682 10.4706 27.4627 10.5347C27.0144 10.5987 26.5554 10.6627 26.1071 10.7268C25.7869 10.7695 25.5414 10.6521 25.3813 10.3639C25.2533 10.1291 25.1038 9.89425 24.9758 9.65944C24.8263 9.38193 24.8904 9.12577 25.1359 8.98701C25.36 8.85893 25.6589 8.90163 25.7656 9.17914C26.0004 9.74483 26.374 9.88358 26.9397 9.61674L26.9824 9.65944Z" fill="#58595B"/>
<path d="M11.9756 14.5372C9.81953 14.5265 8.49603 12.7227 9.1471 10.6627C9.65943 9.02971 11.2925 7.80227 12.9895 7.79159C15.0815 7.78092 16.4477 9.56338 15.8713 11.57C15.786 11.8688 15.6472 12.157 15.5085 12.4238C15.3377 12.7547 15.0815 12.8508 14.8254 12.712C14.5692 12.5733 14.5158 12.3064 14.6866 11.9862C14.9961 11.4206 15.1456 10.8228 15.0068 10.1824C14.804 9.25385 13.9395 8.67749 12.8828 8.72018C11.4526 8.78422 10.1397 9.97964 9.93694 11.3992C9.77684 12.5199 10.556 13.4912 11.6874 13.5872C12.221 13.6299 12.7227 13.5446 13.203 13.3204C13.2564 13.2991 13.3097 13.267 13.3738 13.2457C13.6406 13.1496 13.8754 13.235 13.9928 13.4592C14.1102 13.694 14.0249 13.9608 13.7687 14.0889C13.2137 14.3878 12.616 14.5479 11.9756 14.5372Z" fill="#58595B"/>
<path d="M15.295 20.0874C14.0996 20.0874 13.139 19.1374 13.139 17.942C13.139 16.7466 14.0996 15.7753 15.2843 15.7753C16.4691 15.7753 17.451 16.7466 17.451 17.9313C17.451 19.1267 16.4904 20.0874 15.295 20.0874ZM15.2843 19.1481C15.9674 19.1481 16.5118 18.6037 16.5118 17.9313C16.5118 17.2589 15.9567 16.7039 15.2843 16.7039C14.6226 16.7039 14.0782 17.2482 14.0782 17.91C14.0782 18.5931 14.6012 19.1374 15.2843 19.1481Z" fill="#58595B"/>
<path d="M22.8944 9.81954C22.8944 10.3532 22.7023 10.7375 22.3714 11.047C21.5816 11.8155 20.2261 11.8261 19.4149 11.079C18.6784 10.3959 18.6784 9.32856 19.4149 8.65614C20.2154 7.91967 21.5603 7.91967 22.3501 8.66681C22.7023 8.99769 22.8944 9.3926 22.8944 9.81954ZM21.9552 9.88358C21.9552 9.42462 21.4749 9.04038 20.8772 9.04038C20.2901 9.04038 19.8098 9.41395 19.8098 9.87291C19.8098 10.3212 20.2901 10.6948 20.8772 10.6948C21.4535 10.6948 21.9445 10.3319 21.9552 9.88358Z" fill="#58595B"/>
<path d="M10.0437 21.8378C9.09374 21.8378 8.33593 21.0693 8.3466 20.13C8.3466 19.2015 9.11508 18.4543 10.0437 18.4543C10.9829 18.4543 11.7407 19.2121 11.7301 20.1621C11.7301 21.1013 10.9723 21.8378 10.0437 21.8378ZM10.0437 20.8985C10.4706 20.8985 10.7908 20.5783 10.7908 20.1514C10.7908 19.7245 10.4599 19.3936 10.0437 19.3936C9.63808 19.3936 9.28586 19.7458 9.28586 20.1514C9.28586 20.5677 9.62741 20.8985 10.0437 20.8985Z" fill="#58595B"/>
<path d="M21.8911 18.7318C20.9626 18.7318 20.2047 17.9847 20.2047 17.0561C20.2047 16.1382 20.9412 15.3911 21.8591 15.3804C22.7984 15.3804 23.5562 16.1062 23.5669 17.0348C23.5669 17.9633 22.8304 18.7212 21.8911 18.7212V18.7318ZM21.8911 16.3196C21.4856 16.3196 21.1547 16.6398 21.144 17.0454C21.144 17.451 21.4642 17.7819 21.8698 17.7926C22.2967 17.7926 22.6383 17.4724 22.6276 17.0561C22.6276 16.6505 22.2967 16.3303 21.8911 16.3303V16.3196Z" fill="#58595B"/>
<path d="M17.419 21.3255C18.3262 21.3255 19.0734 22.0726 19.0627 22.9692C19.0627 23.8657 18.3049 24.6235 17.4083 24.6129C16.5118 24.6129 15.7646 23.8657 15.7646 22.9585C15.7646 22.0513 16.5011 21.3148 17.4083 21.3148L17.419 21.3255ZM17.4083 22.2647C17.0134 22.2647 16.7039 22.5956 16.7145 22.9905C16.7145 23.3641 17.0454 23.6736 17.419 23.6843C17.8032 23.6843 18.1341 23.3641 18.1341 22.9798C18.1341 22.5956 17.8032 22.2754 17.419 22.2754L17.4083 22.2647Z" fill="#58595B"/>
<path d="M20.9839 21.4215C20.8451 21.4215 20.7171 21.4215 20.5783 21.4002C20.3435 21.3575 20.2154 21.1974 20.2047 20.9626C20.2047 20.7278 20.3222 20.5463 20.557 20.5143C20.8345 20.4823 21.1227 20.4823 21.3895 20.5143C21.635 20.5463 21.7631 20.7278 21.7524 20.9839C21.7524 21.2401 21.5923 21.3895 21.3468 21.4215C21.2187 21.4322 21.1013 21.4215 20.9732 21.4215H20.9839Z" fill="#58595B"/>
<path d="M17.2696 6.96974C17.3763 6.96974 17.4724 6.96974 17.5791 6.96974C17.8459 7.00176 18.0274 7.19388 18.0167 7.45004C18.006 7.71688 17.8459 7.87698 17.5898 7.89833C17.3976 7.91967 17.1948 7.909 17.0027 7.89833C16.7145 7.88765 16.5224 7.69553 16.5224 7.43937C16.5224 7.18321 16.7145 6.99109 17.0027 6.96974C17.0988 6.96974 17.1842 6.96974 17.2802 6.96974H17.2696Z" fill="#58595B"/>
<path d="M13.3631 22.9692C13.235 22.9478 13.0642 22.9692 12.9789 22.8838C12.8508 22.7557 12.712 22.5636 12.7334 22.4142C12.7547 22.2647 12.9468 22.1046 13.0963 22.0299C13.2243 21.9659 13.3951 22.0086 13.5552 22.0086C13.8647 22.0086 14.0675 22.2114 14.0675 22.4782C14.0675 22.745 13.8541 22.9265 13.5552 22.9478C13.4912 22.9478 13.4271 22.9478 13.3738 22.9478V22.9692H13.3631Z" fill="#58595B"/>
<path d="M8.99768 16.1275C8.92296 16.1275 8.83758 16.1275 8.75219 16.1062C8.48535 16.0635 8.33593 15.9034 8.33593 15.6365C8.33593 15.3911 8.48535 15.2203 8.73084 15.1883C8.90162 15.1669 9.08306 15.1669 9.25384 15.1883C9.52067 15.2203 9.6701 15.3911 9.6701 15.6472C9.6701 15.9034 9.51 16.0635 9.24316 16.0955C9.15778 16.0955 9.07239 16.0955 8.987 16.1062L8.99768 16.1275Z" fill="#58595B"/>
<path d="M18.9346 13.79C19.0734 13.8221 19.2548 13.8007 19.3402 13.8861C19.4576 14.0035 19.5643 14.1956 19.5537 14.3451C19.543 14.4731 19.3829 14.6546 19.2441 14.708C19.084 14.772 18.8812 14.7613 18.6998 14.74C18.4009 14.7186 18.2302 14.5265 18.2515 14.2597C18.2729 13.9715 18.4436 13.8434 18.7105 13.8221C18.7852 13.8221 18.8599 13.8221 18.9239 13.8221V13.79H18.9346Z" fill="#58595B"/>
</svg>
