<svg width="357" height="343" viewBox="0 0 357 343" fill="none" xmlns="http://www.w3.org/2000/svg">
<g opacity="0.3">
<path opacity="0.3" d="M68.7189 5.6709H18.454V77.7468H68.7189V5.6709Z" stroke="#D23E26" stroke-linecap="round" stroke-linejoin="round"/>
<path opacity="0.3" d="M122.439 5.6709H72.1745V77.7468H122.439V5.6709Z" stroke="#D23E26" stroke-linecap="round" stroke-linejoin="round"/>
<path opacity="0.3" d="M176.153 5.6709H125.888V77.7468H176.153V5.6709Z" stroke="#D23E26" stroke-linecap="round" stroke-linejoin="round"/>
<path opacity="0.3" d="M68.7189 81.2009H18.454V153.277H68.7189V81.2009Z" stroke="#D23E26" stroke-linecap="round" stroke-linejoin="round"/>
<path opacity="0.3" d="M122.439 81.2009H72.1745V153.277H122.439V81.2009Z" stroke="#D23E26" stroke-linecap="round" stroke-linejoin="round"/>
<path opacity="0.3" d="M176.153 81.2009H125.888V153.277H176.153V81.2009Z" stroke="#D23E26" stroke-linecap="round" stroke-linejoin="round"/>
<path opacity="0.3" d="M68.7189 156.739H18.454V228.815H68.7189V156.739Z" stroke="#D23E26" stroke-linecap="round" stroke-linejoin="round"/>
<path opacity="0.3" d="M122.439 156.739H72.1745V228.815H122.439V156.739Z" stroke="#D23E26" stroke-linecap="round" stroke-linejoin="round"/>
<path opacity="0.3" d="M176.153 156.739H125.888V228.815H176.153V156.739Z" stroke="#D23E26" stroke-linecap="round" stroke-linejoin="round"/>
</g>
<path d="M325.755 16.5322V245.889C325.755 248.912 324.556 251.812 322.423 253.951C320.289 256.09 317.395 257.292 314.377 257.294H215.447C212.428 257.292 209.534 256.09 207.401 253.951C205.267 251.812 204.069 248.912 204.069 245.889V16.5247C204.069 13.5038 205.267 10.6066 207.399 8.4705C209.531 6.33439 212.424 5.13434 215.439 5.13434H257.903L257.94 5.26283C258.997 9.07977 261.434 11.5589 264.135 11.5589H265.644C268.352 11.5589 270.782 9.07977 271.846 5.26283L271.883 5.13434H314.339C315.837 5.12937 317.32 5.42051 318.705 5.99108C320.09 6.56165 321.349 7.40043 322.409 8.45932C323.47 9.51821 324.311 10.7764 324.885 12.1617C325.459 13.547 325.755 15.0323 325.755 16.5322V16.5322Z" fill="white"/>
<path d="M325.755 180.993V16.5322C325.755 13.5093 324.556 10.6102 322.422 8.47265C320.289 6.33512 317.395 5.13428 314.377 5.13428H271.921L271.883 5.26277C270.82 9.07971 268.39 11.5588 265.681 11.5588H264.172C261.471 11.5588 259.034 9.07971 257.978 5.26277L257.94 5.13428H215.439C212.424 5.13428 209.531 6.33433 207.399 8.47043C205.267 10.6065 204.069 13.5037 204.069 16.5246V180.993H325.755Z" fill="#F05A22"/>
<path d="M271.884 5.26277C270.82 9.07971 268.39 11.5588 265.682 11.5588H264.173C261.472 11.5588 259.034 9.07971 257.978 5.26277L257.94 5.13428H222.117C217.822 5.1342 213.669 6.66739 210.401 9.45864C207.134 12.2499 204.966 16.1164 204.288 20.3642H325.529C324.851 16.1177 322.684 12.2522 319.418 9.46109C316.152 6.67 312 5.136 307.707 5.13428H271.921L271.884 5.26277Z" fill="#E6E7E6"/>
<path d="M333.489 71.3148V48.4056H331.399V19.0794C331.399 14.2845 329.497 9.6859 326.113 6.29535C322.728 2.90479 318.138 1 313.351 1H216.443C214.073 1 211.726 1.46764 209.536 2.37622C207.347 3.28479 205.357 4.61651 203.681 6.29535C202.005 7.97418 200.676 9.96724 199.769 12.1607C198.862 14.3542 198.395 16.7052 198.395 19.0794V252.124C198.395 254.499 198.862 256.85 199.769 259.043C200.676 261.237 202.005 263.23 203.681 264.908C205.357 266.587 207.347 267.919 209.536 268.828C211.726 269.736 214.073 270.204 216.443 270.204H313.374C318.156 270.198 322.741 268.29 326.121 264.9C329.5 261.51 331.399 256.915 331.399 252.124V90.8379H333.466V77.301H331.399V71.3148H333.489ZM325.755 239.215C325.753 244.009 323.851 248.607 320.467 251.997C317.083 255.387 312.493 257.292 307.707 257.294H222.117C219.747 257.294 217.4 256.827 215.21 255.918C213.02 255.009 211.031 253.678 209.355 251.999C207.679 250.32 206.35 248.327 205.443 246.133C204.536 243.94 204.069 241.589 204.069 239.215V23.1987C204.073 18.4064 205.976 13.8117 209.36 10.4244C212.744 7.0371 217.333 5.13439 222.117 5.13439H257.903L257.94 5.26288C258.997 9.07982 261.434 11.5589 264.135 11.5589H265.644C268.352 11.5589 270.782 9.07982 271.846 5.26288L271.884 5.13439H307.707C312.491 5.13639 317.078 7.03975 320.461 10.4266C323.845 13.8134 325.749 18.407 325.755 23.1987V239.215Z" fill="#58595B" stroke="#58595B" stroke-linejoin="round"/>
<path d="M311.932 3.49439H217.891C215.605 3.49339 213.341 3.94374 211.229 4.81967C209.117 5.69561 207.197 6.97997 205.581 8.59935C203.964 10.2187 202.682 12.1413 201.808 14.2573C200.933 16.3734 200.484 18.6412 200.485 20.9314V250.28C200.485 252.57 200.935 254.837 201.81 256.952C202.685 259.067 203.967 260.989 205.583 262.607C207.2 264.226 209.119 265.51 211.231 266.385C213.342 267.261 215.606 267.711 217.891 267.71H311.932C314.217 267.71 316.48 267.259 318.591 266.383C320.702 265.507 322.62 264.223 324.235 262.605C325.851 260.986 327.132 259.065 328.007 256.95C328.881 254.836 329.331 252.569 329.331 250.28V20.9314C329.332 18.6419 328.883 16.3746 328.009 14.2591C327.135 12.1436 325.854 10.2213 324.238 8.60202C322.622 6.98275 320.704 5.69823 318.592 4.82185C316.481 3.94546 314.218 3.49439 311.932 3.49439ZM325.755 239.857C325.755 244.482 323.921 248.917 320.657 252.187C317.392 255.457 312.965 257.294 308.348 257.294H221.475C216.859 257.294 212.431 255.457 209.167 252.187C205.903 248.917 204.069 244.482 204.069 239.857V22.564C204.069 17.9414 205.902 13.5081 209.165 10.2395C212.428 6.97085 216.853 5.13454 221.468 5.13454H257.902L257.94 5.26303C258.996 9.07997 261.434 11.5591 264.135 11.5591H265.644C268.352 11.5591 270.782 9.07997 271.846 5.26303L271.883 5.13454H308.311C312.927 5.13454 317.355 6.97164 320.619 10.2417C323.883 13.5118 325.717 17.9469 325.717 22.5715L325.755 239.857Z" fill="#58595B" stroke="#58595B" stroke-linejoin="round"/>
<path d="M266.233 5.99578C266.233 5.65943 266.133 5.33064 265.946 5.05097C265.76 4.77131 265.495 4.55333 265.185 4.42462C264.874 4.2959 264.533 4.26223 264.204 4.32784C263.874 4.39346 263.572 4.55543 263.334 4.79327C263.097 5.0311 262.935 5.33412 262.87 5.66401C262.804 5.9939 262.838 6.33583 262.966 6.64658C263.095 6.95733 263.313 7.22293 263.592 7.40979C263.871 7.59666 264.199 7.6964 264.535 7.6964C264.758 7.6974 264.979 7.65409 265.186 7.56898C265.392 7.48387 265.58 7.35865 265.738 7.20053C265.895 7.04241 266.02 6.85454 266.105 6.64776C266.19 6.44098 266.234 6.21939 266.233 5.99578V5.99578Z" fill="white"/>
<path d="M214.881 12.5037C214.881 14.2195 212.957 14.8392 212.949 16.1468V16.2375H214.821V16.8119H212.323V16.3282C212.323 14.4916 214.247 14.1288 214.247 12.5491C214.247 11.9671 214.051 11.6572 213.583 11.6572C213.115 11.6572 212.919 11.9898 212.919 12.4962V12.995H212.323V12.534C212.323 11.6648 212.723 11.0828 213.598 11.0828C214.474 11.0828 214.881 11.6345 214.881 12.5037Z" fill="#58595B"/>
<path d="M217.997 12.4961V12.6171C218.024 12.8613 217.97 13.1076 217.845 13.3189C217.72 13.5302 217.53 13.6951 217.303 13.7886C217.531 13.8825 217.722 14.0485 217.847 14.2614C217.973 14.4742 218.025 14.7222 217.997 14.9677V15.4061C217.997 16.2828 217.589 16.8497 216.714 16.8497C215.839 16.8497 215.439 16.2828 215.439 15.4061V15.0206H216.028V15.4514C216.028 15.9654 216.239 16.2753 216.692 16.2753C217.144 16.2753 217.363 15.9729 217.363 15.391V14.9526C217.363 14.3933 217.122 14.1212 216.646 14.1061H216.307V13.5392H216.714C216.81 13.5397 216.906 13.5199 216.994 13.4811C217.082 13.4424 217.161 13.3856 217.225 13.3143C217.29 13.243 217.339 13.159 217.369 13.0675C217.4 12.976 217.41 12.8792 217.401 12.7834V12.5188C217.401 11.9368 217.197 11.6345 216.729 11.6345C216.261 11.6345 216.065 11.9519 216.065 12.4659V12.7531H215.477V12.4961C215.477 11.6269 215.877 11.0601 216.752 11.0601C217.627 11.0601 217.997 11.6269 217.997 12.4961Z" fill="#58595B"/>
<path d="M219.219 12.9268V13.6826H218.616V12.9268H219.219ZM219.219 16.0257V16.7815H218.616V16.0257H219.219Z" fill="#58595B"/>
<path d="M220.487 13.441C220.57 13.2913 220.693 13.1676 220.842 13.0836C220.991 12.9995 221.161 12.9584 221.332 12.9648C222.086 12.9648 222.388 13.5015 222.388 14.3178V15.4288C222.388 16.3056 221.981 16.8725 221.105 16.8725C220.23 16.8725 219.83 16.3056 219.83 15.4288V15.0509H220.426V15.4742C220.426 15.9881 220.638 16.298 221.09 16.298C221.543 16.298 221.754 15.9881 221.754 15.4742V14.3631C221.754 13.8567 221.543 13.5468 221.09 13.5468C221.008 13.5438 220.927 13.5571 220.85 13.5859C220.773 13.6148 220.703 13.6586 220.643 13.7149C220.584 13.7711 220.536 13.8387 220.503 13.9136C220.469 13.9886 220.451 14.0694 220.449 14.1515V14.2875H219.861L220.011 11.1206H222.275V11.6875H220.6L220.487 13.441Z" fill="#58595B"/>
<path d="M225.564 12.4886V12.6171H225.014V12.4659C225.014 11.9595 224.802 11.6572 224.335 11.6572C223.867 11.6572 223.648 11.9671 223.648 12.5717V13.8264C223.715 13.639 223.841 13.4786 224.007 13.3695C224.173 13.2603 224.37 13.2085 224.568 13.2217C225.323 13.2217 225.625 13.7508 225.625 14.5671V15.4288C225.625 16.3055 225.187 16.8724 224.319 16.8724C223.452 16.8724 223.014 16.3055 223.014 15.4288V12.5264C223.014 11.6269 223.422 11.0601 224.319 11.0601C225.217 11.0601 225.564 11.6194 225.564 12.4886ZM223.61 14.62V15.4741C223.61 15.9881 223.821 16.298 224.282 16.298C224.742 16.298 224.961 15.9881 224.961 15.4741V14.62C224.961 14.1061 224.742 13.7962 224.282 13.7962C223.821 13.7962 223.61 14.1287 223.61 14.62V14.62Z" fill="#58595B"/>
<path d="M287.645 12.738H286.038V16.759H287.645V12.738Z" fill="#58595B"/>
<path d="M289.788 11.9292H288.181V16.7589H289.788V11.9292Z" fill="#58595B"/>
<path d="M291.923 11.3625H290.316V16.7592H291.923V11.3625Z" fill="#58595B"/>
<path d="M294.066 10.3647H292.459V16.7591H294.066V10.3647Z" fill="#58595B"/>
<path d="M313.932 16.6457H304.297V10.7502H313.932V16.6457ZM304.833 16.1091H313.396V11.2869H304.833V16.1091Z" fill="#58595B"/>
<path d="M310.725 11.8687H305.64V15.5269H310.725V11.8687Z" fill="#58595B"/>
<path d="M314.815 13.0027H313.6V14.3934H314.815V13.0027Z" fill="#58595B"/>
<path d="M300.766 15.3683C300.702 15.366 300.64 15.3478 300.585 15.3154C298.623 14.1438 297.326 15.2322 297.273 15.3154C297.237 15.3466 297.196 15.3705 297.151 15.3855C297.107 15.4006 297.059 15.4065 297.012 15.403C296.965 15.3995 296.919 15.3866 296.877 15.365C296.835 15.3435 296.798 15.3138 296.767 15.2776C296.701 15.2098 296.664 15.119 296.664 15.0244C296.664 14.9298 296.701 14.8389 296.767 14.7712C296.835 14.7107 298.495 13.2595 300.925 14.7712C300.965 14.7953 301 14.8271 301.028 14.865C301.056 14.9028 301.076 14.9458 301.088 14.9915C301.099 15.0372 301.101 15.0847 301.094 15.1312C301.086 15.1778 301.07 15.2224 301.045 15.2625C301.009 15.2986 300.965 15.3266 300.917 15.3449C300.869 15.3631 300.817 15.3711 300.766 15.3683V15.3683Z" fill="#58595B"/>
<path d="M301.49 14.1288C301.427 14.1291 301.365 14.1135 301.309 14.0834C298.472 12.3903 296.571 14.0229 296.548 14.0381C296.513 14.0693 296.472 14.0933 296.427 14.1087C296.383 14.1241 296.336 14.1306 296.289 14.1278C296.242 14.125 296.196 14.113 296.154 14.0924C296.112 14.0718 296.074 14.0431 296.043 14.0078C296.011 13.9726 295.987 13.9315 295.972 13.887C295.957 13.8425 295.95 13.7954 295.953 13.7484C295.956 13.7013 295.968 13.6553 295.988 13.613C296.009 13.5706 296.038 13.5327 296.073 13.5014C296.073 13.5014 298.397 11.506 301.679 13.4636C301.719 13.4877 301.754 13.5196 301.782 13.5574C301.81 13.5952 301.83 13.6383 301.842 13.684C301.853 13.7297 301.855 13.7772 301.848 13.8237C301.84 13.8702 301.824 13.9148 301.799 13.9549C301.767 14.008 301.722 14.0519 301.667 14.0824C301.613 14.1128 301.552 14.1288 301.49 14.1288V14.1288Z" fill="#58595B"/>
<path d="M302.154 12.7529C302.088 12.7506 302.023 12.7324 301.966 12.7C298.374 10.561 295.99 12.5715 295.892 12.7C295.856 12.7312 295.815 12.7551 295.77 12.7701C295.725 12.7852 295.678 12.7911 295.631 12.7876C295.584 12.784 295.538 12.7711 295.496 12.7496C295.454 12.7281 295.417 12.6984 295.386 12.6622C295.353 12.6291 295.326 12.5897 295.308 12.5462C295.29 12.5028 295.28 12.4561 295.28 12.409C295.28 12.3618 295.29 12.3152 295.308 12.2717C295.326 12.2282 295.353 12.1888 295.386 12.1558C295.386 12.1558 298.246 9.69933 302.305 12.118C302.386 12.1668 302.445 12.2455 302.469 12.3374C302.493 12.4292 302.48 12.5269 302.433 12.6093C302.4 12.6523 302.358 12.6874 302.31 12.7122C302.261 12.737 302.208 12.7509 302.154 12.7529Z" fill="#58595B"/>
<path d="M299.71 15.9654C299.711 16.1451 299.659 16.3212 299.561 16.4713C299.462 16.6214 299.321 16.7389 299.156 16.8087C298.991 16.8785 298.809 16.8975 298.632 16.8634C298.456 16.8293 298.294 16.7435 298.167 16.6169C298.04 16.4904 297.953 16.3288 297.917 16.1527C297.881 15.9765 297.899 15.7938 297.967 15.6276C298.036 15.4614 298.152 15.3193 298.301 15.2193C298.45 15.1193 298.625 15.0659 298.804 15.0659C299.043 15.0659 299.272 15.1604 299.442 15.3289C299.612 15.4974 299.708 15.7261 299.71 15.9654V15.9654Z" fill="#58595B"/>
<path d="M319.244 67.1804H211.757V136.089H319.244V67.1804Z" fill="white" stroke="#58595B" stroke-linecap="round" stroke-linejoin="round"/>
<path d="M319.244 128.418H211.757V136.097H319.244V128.418Z" fill="white" stroke="#58595B" stroke-linecap="round" stroke-linejoin="round"/>
<path d="M319.244 131.139H211.757V133.376H319.244V131.139Z" fill="white" stroke="#58595B" stroke-linecap="round" stroke-linejoin="round"/>
<g clip-path="url(#clip0_2_352)">
<path d="M224.667 52.2409C224.204 52.4097 223.754 52.6117 223.32 52.8451C223.2 52.9153 223.101 53.0146 223.031 53.1337L222.327 54.421C222.271 54.523 222.316 54.5778 222.428 54.5422C222.428 54.5422 222.711 54.446 222.985 54.37C223.652 54.1776 224.885 53.8793 224.885 53.8793C225.013 53.8414 225.123 53.7574 225.193 53.6436L226.163 51.8656C226.219 51.7636 226.175 51.7098 226.067 51.7463C226.067 51.7463 225.377 51.9695 224.675 52.2409" fill="white"/>
<path d="M230.927 53.0019C230.951 53.0032 230.975 52.9975 230.996 52.9856C231.017 52.9737 231.035 52.9561 231.046 52.9347C231.058 52.9133 231.063 52.8891 231.061 52.8648C231.059 52.8406 231.051 52.8174 231.036 52.7979L230.107 51.0959C230.076 51.0431 230.029 51.0005 229.974 50.9731C229.919 50.9456 229.857 50.9345 229.795 50.941L227.934 51.2585C227.908 51.2612 227.884 51.2703 227.864 51.285C227.843 51.2997 227.827 51.3195 227.816 51.3424C227.805 51.3654 227.801 51.3907 227.802 51.4159C227.804 51.4411 227.813 51.4655 227.827 51.4865L228.665 53.0259C228.698 53.0796 228.744 53.1236 228.799 53.1532C228.854 53.1828 228.917 53.197 228.979 53.1943L230.927 53.0019Z" fill="white"/>
<path d="M229.663 50.2848L229.493 49.9741L229.167 49.3766L228.73 48.5761C228.7 48.5255 228.654 48.4865 228.599 48.4659C228.544 48.4452 228.484 48.444 228.428 48.4626C227.156 48.8349 225.897 49.4093 225.299 49.8096C224.968 50.0299 224.68 50.2695 224.68 50.2695C224.575 50.3624 224.485 50.4715 224.414 50.5927L223.63 52.0263C223.575 52.1283 223.616 52.1716 223.722 52.1225C223.722 52.1225 223.925 52.0263 224.153 51.9301C224.971 51.5882 225.812 51.3034 226.669 51.0776L226.72 51.0642C227.711 50.8073 229.555 50.5061 229.555 50.5061C229.58 50.5048 229.604 50.4968 229.625 50.483C229.646 50.4692 229.662 50.45 229.673 50.4276C229.684 50.4051 229.689 50.3802 229.687 50.3552C229.685 50.3303 229.677 50.3063 229.663 50.2858" fill="white"/>
<path d="M225.246 49.2928C225.726 49.0078 226.221 48.7489 226.729 48.5174C227.256 48.2961 228.192 48.0238 228.192 48.0238C228.217 48.018 228.241 48.0062 228.261 47.9895C228.281 47.9727 228.297 47.9514 228.307 47.9273C228.317 47.9032 228.321 47.8771 228.319 47.851C228.317 47.825 228.309 47.7998 228.296 47.7775L227.429 46.1881C227.249 45.8995 226.973 45.9091 226.802 46.2227L225.165 49.213C225.109 49.315 225.146 49.3506 225.246 49.2909" fill="white"/>
<path d="M232.489 55.462L231.488 53.6282C231.464 53.5806 231.43 53.5395 231.386 53.5086C231.343 53.4777 231.293 53.458 231.24 53.4512H231.166C227.46 53.7071 224.752 54.3305 223.134 54.8078C222.652 54.9501 222.09 55.1435 222.09 55.1435C222.023 55.1609 221.96 55.1937 221.907 55.2395C221.855 55.2853 221.813 55.3427 221.787 55.4071L221.757 55.462C221.617 55.767 221.777 56.0104 222.133 56.0104H222.15H232.114C232.469 56.0104 232.629 55.767 232.489 55.461" fill="white"/>
<path d="M215.27 59.8163H216.25L216.008 58.9504C215.899 58.5655 215.816 58.1737 215.76 57.7776C215.717 58.0662 215.618 58.5415 215.511 58.9504L215.27 59.8163ZM216.37 60.2685H215.149L214.872 61.2758C214.851 61.3432 214.83 61.3721 214.602 61.3721C214.529 61.3721 214.375 61.3624 214.24 61.3509L215.504 57.1455C215.518 57.0849 215.601 57.0599 215.724 57.0599C215.814 57.0592 215.904 57.0653 215.994 57.0782L217.265 61.2653C217.279 61.3326 217.243 61.3692 217.017 61.3692C216.931 61.3692 216.818 61.3692 216.675 61.3567L216.37 60.2685Z" fill="white"/>
<path d="M217.556 58.4473C217.916 58.3191 218.295 58.249 218.677 58.2395C219.423 58.2395 219.679 58.4656 219.679 59.0583V61.2586C219.679 61.3548 219.664 61.3548 219.082 61.3548V59.2055C219.082 58.8206 219.011 58.6734 218.656 58.6734C218.475 58.6751 218.297 58.7127 218.131 58.7841V61.2586C218.131 61.3548 218.116 61.3548 217.553 61.3548L217.556 58.4473Z" fill="white"/>
<path d="M220.197 57.0908C220.197 56.8647 220.293 56.8647 220.774 56.8647V58.4782C221.008 58.318 221.286 58.2346 221.569 58.2396C222.18 58.2396 222.308 58.533 222.308 59.0468V61.2597C222.308 61.3559 222.28 61.3559 221.712 61.3559V59.1873C221.712 58.9189 221.655 58.6985 221.307 58.6985C221.114 58.6973 220.927 58.7576 220.771 58.8708V61.2597C220.771 61.3559 220.765 61.3559 220.194 61.3559L220.197 57.0908Z" fill="white"/>
<path d="M223.838 59.8597C223.55 59.8597 223.313 59.9453 223.313 60.4764C223.313 60.9228 223.498 61.0027 223.775 61.0027C223.908 61.007 224.039 60.9708 224.15 60.8988C224.171 60.6967 224.171 60.2445 224.171 59.9145C224.064 59.878 223.952 59.8594 223.838 59.8597V59.8597ZM222.795 58.405C222.915 58.3376 223.334 58.2395 223.874 58.2395C224.484 58.2395 224.754 58.4319 224.754 58.9851V59.3094C224.754 60.0127 224.747 60.7458 224.712 61.2105C224.403 61.355 224.065 61.4261 223.725 61.4183C223.207 61.4241 222.709 61.3221 222.709 60.4889C222.709 59.6557 223.178 59.4864 223.654 59.4864C223.83 59.4816 224.005 59.5087 224.171 59.5663V59.0852C224.171 58.7966 224.016 58.7244 223.732 58.7244C223.414 58.7223 223.099 58.7677 222.795 58.8591C222.743 58.7747 222.716 58.6773 222.717 58.5782C222.714 58.5453 222.72 58.5123 222.733 58.4824C222.747 58.4524 222.768 58.4264 222.795 58.4069" fill="white"/>
<path d="M225.265 58.4473C225.626 58.3192 226.004 58.2491 226.387 58.2395C227.132 58.2395 227.388 58.4656 227.388 59.0583V61.2586C227.388 61.3548 227.373 61.3548 226.791 61.3548V59.2055C226.791 58.8206 226.721 58.6734 226.365 58.6734C226.185 58.6751 226.006 58.7127 225.84 58.7841V61.2586C225.84 61.3548 225.826 61.3548 225.262 61.3548L225.265 58.4473Z" fill="white"/>
<path d="M232.74 61.1979C232.406 61.3436 232.046 61.4186 231.681 61.4183C230.837 61.4183 230.617 61.0883 230.617 60.4032V58.4049C230.617 58.301 230.617 58.301 231.213 58.301V60.4465C231.213 60.8429 231.31 60.9834 231.689 60.9834C231.854 60.9857 232.017 60.9481 232.165 60.8737V58.4049C232.165 58.301 232.171 58.301 232.742 58.301L232.74 61.1979Z" fill="white"/>
<path d="M233.826 59.7124C234.149 59.7246 234.471 59.702 234.789 59.6451C234.815 59.5247 234.827 59.4017 234.824 59.2785C234.817 58.8388 234.728 58.6733 234.419 58.6733C234.13 58.6733 233.872 58.8879 233.83 59.7124H233.826ZM235.385 59.2237C235.389 59.4907 235.363 59.7573 235.307 60.0184C234.815 60.0855 234.319 60.1177 233.823 60.1146C233.851 60.7631 234.05 60.9333 234.483 60.9333C234.764 60.9301 235.04 60.8643 235.292 60.7409C235.327 60.8495 235.344 60.9628 235.342 61.0767C235.342 61.2691 234.895 61.4134 234.362 61.4134C233.702 61.4134 233.226 61.1748 233.226 59.9828C233.226 58.4549 233.859 58.2346 234.478 58.2346C235.075 58.2346 235.38 58.5589 235.38 59.2189" fill="white"/>
<path d="M235.814 58.5147C236.105 58.3397 236.437 58.2448 236.777 58.2395C237.139 58.2395 237.274 58.3357 237.274 58.4964C237.272 58.5959 237.25 58.694 237.21 58.785C237.08 58.7272 236.938 58.7031 236.797 58.7148C236.655 58.7266 236.519 58.7739 236.4 58.8524L236.394 61.2576C236.394 61.3539 236.386 61.3539 235.811 61.3539L235.814 58.5147Z" fill="white"/>
<path d="M238.625 59.8597C238.336 59.8597 238.1 59.9453 238.1 60.4764C238.1 60.9228 238.284 61.0027 238.562 61.0027C238.694 61.007 238.825 60.9708 238.937 60.8988C238.959 60.6967 238.959 60.2445 238.959 59.9145C238.852 59.878 238.739 59.8595 238.625 59.8597V59.8597ZM237.582 58.405C237.702 58.3376 238.122 58.2395 238.661 58.2395C239.271 58.2395 239.541 58.4319 239.541 58.9851V59.3094C239.541 60.0127 239.534 60.7458 239.498 61.2105C239.19 61.355 238.852 61.4261 238.512 61.4183C237.994 61.4241 237.496 61.3221 237.496 60.4889C237.496 59.6557 237.965 59.4864 238.44 59.4864C238.617 59.4817 238.792 59.5088 238.959 59.5663V59.0852C238.959 58.7966 238.802 58.7244 238.518 58.7244C238.201 58.7223 237.885 58.7677 237.582 58.8591C237.53 58.7747 237.503 58.6773 237.504 58.5782C237.501 58.5453 237.507 58.5123 237.52 58.4824C237.534 58.4524 237.555 58.4264 237.582 58.4069" fill="white"/>
<path d="M229.032 60.9133C228.988 60.9136 228.943 60.9087 228.9 60.8989C228.618 60.8363 228.454 60.5602 228.414 60.0744C228.407 59.9926 228.403 59.906 228.403 59.8127C228.403 59.754 228.403 59.6991 228.403 59.6453C228.421 59.3451 228.483 59.119 228.596 58.9718C228.661 58.8876 228.745 58.8207 228.842 58.7772C228.939 58.7337 229.045 58.7149 229.15 58.7226C229.28 58.7226 229.408 58.7335 229.536 58.7553V60.7526L229.484 60.7902C229.347 60.8745 229.188 60.9166 229.027 60.9114L229.032 60.9133ZM228.38 62.395C228.284 62.3988 228.188 62.3969 228.092 62.3892C228.067 62.4845 228.072 62.585 228.104 62.6778C228.113 62.7111 228.13 62.7417 228.154 62.7672C228.177 62.7928 228.206 62.8126 228.238 62.825C228.283 62.835 228.33 62.8408 228.376 62.8424C228.406 62.8424 228.351 62.8424 228.386 62.8424C228.938 62.8347 229.286 62.6894 229.616 62.4075C229.72 62.3193 229.811 62.2166 229.885 62.1025C230.049 61.844 230.133 61.5427 230.127 61.2366V58.3897L230.092 58.3801C229.783 58.2978 229.464 58.257 229.144 58.2588C228.687 58.2588 228.345 58.3868 228.125 58.6379C227.906 58.889 227.814 59.2556 227.814 59.7607C227.814 59.778 227.814 59.7944 227.814 59.8127C227.812 60.0025 227.83 60.1921 227.866 60.3784C227.946 60.7703 228.118 61.0454 228.38 61.2039C228.58 61.3171 228.808 61.373 229.038 61.3655C229.212 61.3647 229.384 61.3321 229.546 61.2693V61.2905C229.552 61.4292 229.528 61.5675 229.477 61.6967C229.426 61.8259 229.349 61.9431 229.251 62.0409C229.235 62.0563 229.22 62.0727 229.202 62.0871C229.039 62.2517 228.822 62.3538 228.591 62.3757C228.473 62.3892 228.435 62.393 228.391 62.395" fill="white"/>
</g>
<path d="M213.032 149.369V141.766H214.074V149.369H213.032Z" fill="#58595B"/>
<path d="M215.304 149.369V141.766H216.02L218.178 146.815V141.766H219.061V149.369H218.382L216.202 144.177V149.369H215.304Z" fill="#58595B"/>
<path d="M221.083 149.369V142.567H219.8V141.811H223.392V142.567H222.147V149.369H221.083Z" fill="#58595B"/>
<path d="M224.124 149.369V141.766H225.633C226.062 141.753 226.489 141.822 226.893 141.97C227.215 142.082 227.485 142.311 227.647 142.612C227.821 142.977 227.904 143.379 227.888 143.784C227.893 144.054 227.86 144.324 227.79 144.585C227.74 144.809 227.639 145.018 227.496 145.197C227.351 145.365 227.163 145.49 226.953 145.56L228.024 149.339H227.006L226.01 145.772H225.187V149.339L224.124 149.369ZM225.18 145.038H225.58C225.836 145.053 226.092 145.017 226.334 144.933C226.517 144.863 226.666 144.725 226.749 144.547C226.847 144.308 226.891 144.05 226.877 143.791C226.907 143.453 226.822 143.115 226.636 142.831C226.506 142.716 226.352 142.63 226.185 142.579C226.019 142.528 225.843 142.514 225.67 142.537H225.202L225.18 145.038Z" fill="#58595B"/>
<path d="M230.929 149.422C230.499 149.443 230.073 149.341 229.699 149.128C229.389 148.923 229.158 148.619 229.043 148.266C228.901 147.845 228.835 147.402 228.846 146.958V144.132C228.838 143.693 228.905 143.256 229.043 142.839C229.164 142.499 229.395 142.209 229.699 142.015C230.075 141.808 230.5 141.709 230.929 141.728C231.354 141.707 231.776 141.81 232.144 142.023C232.447 142.215 232.676 142.506 232.793 142.847C232.938 143.259 233.007 143.694 232.996 144.132V147.026C233.004 147.466 232.935 147.903 232.793 148.319C232.677 148.67 232.449 148.973 232.144 149.18C231.771 149.379 231.349 149.463 230.929 149.422V149.422ZM230.929 148.591C231.154 148.606 231.377 148.545 231.563 148.417C231.712 148.29 231.815 148.117 231.857 147.926C231.907 147.677 231.93 147.424 231.925 147.17V143.837C231.93 143.583 231.908 143.33 231.857 143.081C231.812 142.897 231.709 142.732 231.563 142.612C231.373 142.494 231.152 142.439 230.929 142.454C230.702 142.439 230.475 142.494 230.28 142.612C230.134 142.732 230.03 142.897 229.986 143.081C229.932 143.329 229.907 143.583 229.91 143.837V147.17C229.908 147.424 229.933 147.677 229.986 147.926C230.028 148.117 230.131 148.29 230.28 148.417C230.468 148.555 230.696 148.627 230.929 148.621V148.591Z" fill="#58595B"/>
<path d="M234.068 149.369V141.766H235.72C236.179 141.744 236.637 141.832 237.056 142.023C237.371 142.184 237.619 142.452 237.757 142.778C237.908 143.19 237.979 143.626 237.968 144.063V146.86C237.978 147.322 237.907 147.783 237.757 148.22C237.632 148.571 237.389 148.867 237.071 149.059C236.683 149.27 236.244 149.37 235.803 149.347L234.068 149.369ZM235.124 148.613H235.728C236.02 148.642 236.313 148.561 236.55 148.387C236.727 148.212 236.832 147.978 236.844 147.729C236.884 147.383 236.902 147.035 236.897 146.686V144.214C236.904 143.893 236.879 143.571 236.822 143.255C236.808 143.148 236.772 143.046 236.716 142.955C236.66 142.864 236.586 142.786 236.497 142.726C236.252 142.595 235.975 142.535 235.697 142.552H235.124V148.613Z" fill="#58595B"/>
<path d="M240.934 149.422C240.49 149.452 240.048 149.338 239.674 149.097C239.373 148.868 239.16 148.543 239.07 148.175C238.958 147.718 238.905 147.248 238.912 146.777V141.735H239.923V146.822C239.921 147.121 239.943 147.419 239.991 147.714C240.019 147.952 240.119 148.176 240.277 148.356C240.365 148.439 240.468 148.502 240.581 148.542C240.694 148.583 240.814 148.599 240.934 148.591C241.056 148.599 241.178 148.583 241.293 148.542C241.409 148.502 241.515 148.439 241.605 148.356C241.758 148.174 241.855 147.951 241.884 147.714C241.929 147.419 241.949 147.121 241.945 146.822V141.735H242.948V146.777C242.955 147.248 242.902 147.718 242.79 148.175C242.703 148.542 242.493 148.868 242.194 149.097C241.82 149.339 241.378 149.453 240.934 149.422V149.422Z" fill="#58595B"/>
<path d="M245.966 149.422C245.526 149.448 245.09 149.331 244.721 149.09C244.419 148.862 244.202 148.54 244.103 148.175C243.98 147.761 243.921 147.33 243.929 146.898V144.215C243.919 143.76 243.978 143.306 244.103 142.869C244.201 142.512 244.419 142.199 244.721 141.985C245.084 141.786 245.49 141.677 245.903 141.668C246.317 141.659 246.727 141.749 247.098 141.932C247.38 142.107 247.593 142.374 247.702 142.688C247.831 143.067 247.892 143.466 247.883 143.867V144.464H246.894V143.927C246.897 143.675 246.882 143.422 246.849 143.171C246.836 142.981 246.755 142.802 246.623 142.665C246.443 142.53 246.22 142.468 245.996 142.491C245.762 142.469 245.527 142.537 245.34 142.68C245.194 142.828 245.099 143.019 245.068 143.224C245.026 143.497 245.006 143.772 245.008 144.048V147.072C244.998 147.375 245.031 147.677 245.106 147.971C245.144 148.164 245.255 148.335 245.416 148.447C245.59 148.553 245.793 148.603 245.996 148.591C246.107 148.6 246.219 148.588 246.325 148.554C246.432 148.521 246.53 148.466 246.615 148.394C246.747 148.247 246.829 148.062 246.849 147.865C246.88 147.614 246.895 147.362 246.894 147.109V146.542H247.898V147.109C247.902 147.523 247.846 147.936 247.732 148.334C247.636 148.668 247.428 148.959 247.143 149.158C246.789 149.368 246.377 149.461 245.966 149.422V149.422Z" fill="#58595B"/>
<path d="M256.659 149.254C256.231 149.276 255.807 149.173 255.436 148.959C255.126 148.755 254.895 148.451 254.78 148.097C254.638 147.677 254.572 147.234 254.584 146.79V143.963C254.572 143.524 254.638 143.086 254.78 142.671C254.901 142.331 255.132 142.041 255.436 141.847C255.809 141.637 256.232 141.538 256.659 141.56C257.086 141.538 257.51 141.64 257.881 141.854C258.183 142.049 258.411 142.339 258.53 142.678C258.675 143.091 258.744 143.526 258.734 143.963V146.858C258.741 147.297 258.672 147.735 258.53 148.15C258.412 148.5 258.185 148.803 257.881 149.012C257.506 149.211 257.081 149.295 256.659 149.254V149.254ZM256.659 148.422C256.886 148.438 257.112 148.377 257.3 148.249C257.449 148.123 257.551 147.949 257.587 147.757C257.643 147.51 257.669 147.256 257.662 147.002V143.668C257.67 143.414 257.644 143.16 257.587 142.912C257.548 142.728 257.447 142.562 257.3 142.444C257.108 142.325 256.884 142.269 256.659 142.285C256.434 142.271 256.21 142.326 256.017 142.444C255.871 142.564 255.768 142.728 255.723 142.912C255.666 143.16 255.64 143.414 255.648 143.668V147.002C255.641 147.256 255.666 147.51 255.723 147.757C255.765 147.949 255.868 148.121 256.017 148.249C256.203 148.385 256.428 148.457 256.659 148.453V148.422Z" fill="#58595B"/>
<path d="M216.94 81.2389V74.0359H218.593C218.878 74.0323 219.162 74.0679 219.438 74.1417C219.659 74.2055 219.863 74.3193 220.034 74.4743C220.201 74.6276 220.324 74.8235 220.389 75.0411C220.475 75.299 220.516 75.5702 220.509 75.8423C220.513 76.0988 220.474 76.354 220.396 76.5982C220.332 76.7954 220.215 76.9708 220.057 77.1046C219.89 77.2386 219.688 77.3224 219.476 77.3464C219.734 77.3941 219.976 77.5087 220.177 77.679C220.359 77.8438 220.496 78.0517 220.577 78.2837C220.667 78.5696 220.71 78.8682 220.705 79.168C220.707 79.4536 220.672 79.7381 220.6 80.0145C220.533 80.2525 220.417 80.4739 220.26 80.6645C220.105 80.8467 219.908 80.9892 219.687 81.0802C219.422 81.1797 219.14 81.2284 218.857 81.2238L216.94 81.2389ZM217.944 77.0441H218.54C218.767 77.052 218.994 77.0108 219.204 76.9232C219.361 76.8432 219.48 76.7048 219.536 76.5377C219.609 76.3135 219.643 76.0781 219.634 75.8423C219.664 75.5808 219.611 75.3163 219.483 75.0865C219.429 75.0094 219.36 74.9446 219.279 74.8964C219.199 74.8482 219.109 74.8177 219.015 74.8068C218.741 74.763 218.463 74.7428 218.185 74.7464H217.944V77.0441ZM217.944 80.5209H218.615C218.781 80.5433 218.949 80.5263 219.106 80.4711C219.264 80.4159 219.406 80.3242 219.521 80.2035C219.696 79.8936 219.775 79.5382 219.747 79.1831C219.752 78.926 219.711 78.67 219.626 78.4273C219.555 78.2339 219.419 78.0712 219.242 77.9662C219.027 77.8504 218.784 77.7955 218.54 77.8075H217.944V80.5209Z" fill="#58595B"/>
<path d="M223.444 81.3145C223.022 81.3438 222.601 81.235 222.245 81.0046C221.958 80.789 221.758 80.4782 221.679 80.1279C221.573 79.6977 221.522 79.2558 221.528 78.8127V74.0359H222.486V78.8581C222.485 79.1389 222.506 79.4193 222.547 79.697C222.576 79.921 222.67 80.1313 222.818 80.3017C222.901 80.382 222.999 80.4437 223.107 80.4828C223.215 80.5219 223.33 80.5375 223.444 80.5285C223.56 80.5376 223.676 80.5221 223.786 80.483C223.895 80.4439 223.995 80.3821 224.078 80.3017C224.223 80.1304 224.315 79.9201 224.342 79.697C224.383 79.4193 224.404 79.1389 224.403 78.8581V74.0359H225.353V78.8127C225.359 79.2558 225.308 79.6977 225.202 80.1279C225.124 80.4782 224.923 80.789 224.637 81.0046C224.284 81.2365 223.865 81.3454 223.444 81.3145V81.3145Z" fill="#58595B"/>
<path d="M228.1 81.3142C227.737 81.3288 227.378 81.2369 227.066 81.0497C226.788 80.8649 226.57 80.602 226.44 80.2939C226.296 79.9456 226.214 79.5746 226.198 79.1979L227.081 78.956C227.101 79.2108 227.141 79.4636 227.202 79.7119C227.254 79.9292 227.36 80.1295 227.511 80.2939C227.587 80.3719 227.679 80.4326 227.781 80.4718C227.882 80.5109 227.991 80.5276 228.1 80.5206C228.209 80.5297 228.319 80.5147 228.422 80.4769C228.525 80.439 228.618 80.3792 228.696 80.3014C228.837 80.1239 228.907 79.9003 228.892 79.6741C228.898 79.4056 228.822 79.1417 228.673 78.9183C228.505 78.7028 228.319 78.5029 228.115 78.3212L226.908 77.2479C226.685 77.0649 226.505 76.8353 226.38 76.5752C226.26 76.2857 226.203 75.9739 226.214 75.6606C226.199 75.4362 226.232 75.2113 226.31 75.0004C226.388 74.7895 226.51 74.5973 226.666 74.4362C226.832 74.2847 227.026 74.1679 227.237 74.0927C227.448 74.0174 227.672 73.9851 227.896 73.9978C228.152 73.9926 228.407 74.0309 228.651 74.1112C228.853 74.1806 229.037 74.2972 229.186 74.4513C229.344 74.6165 229.463 74.8155 229.533 75.0333C229.628 75.2987 229.687 75.5759 229.707 75.8571L228.854 76.0839C228.841 75.8643 228.805 75.6465 228.749 75.4339C228.704 75.2493 228.607 75.0815 228.47 74.9502C228.308 74.8187 228.103 74.7538 227.896 74.7688C227.791 74.7626 227.685 74.7775 227.585 74.8125C227.486 74.8476 227.394 74.9021 227.315 74.9728C227.241 75.0509 227.185 75.1439 227.15 75.2456C227.115 75.3472 227.102 75.4552 227.111 75.5624C227.106 75.7494 227.142 75.9352 227.217 76.1066C227.31 76.2716 227.433 76.4178 227.579 76.5374L228.786 77.6182C229.068 77.8613 229.31 78.1469 229.503 78.4648C229.721 78.8157 229.831 79.2231 229.82 79.6363C229.829 79.956 229.75 80.2721 229.594 80.5508C229.455 80.8024 229.245 81.0074 228.99 81.1404C228.712 81.2689 228.406 81.3285 228.1 81.3142V81.3142Z" fill="#58595B"/>
<path d="M230.658 81.2389V74.0359H231.646V81.2389H230.658Z" fill="#58595B"/>
<path d="M232.808 81.2389V74.0359H233.487L235.532 78.8203V74.0359H236.332V81.2389H235.698L233.63 76.3261V81.2389H232.808Z" fill="#58595B"/>
<path d="M237.493 81.2389V74.0359H240.278V74.7917H238.497V77.1726H239.938V77.8831H238.497V80.5285H240.293V81.2465L237.493 81.2389Z" fill="#58595B"/>
<path d="M242.798 81.3142C242.435 81.3306 242.075 81.2386 241.764 81.0497C241.486 80.8649 241.268 80.602 241.138 80.2939C240.987 79.9474 240.903 79.5756 240.889 79.1979L241.779 78.956C241.791 79.2117 241.832 79.4652 241.9 79.7119C241.949 79.9285 242.053 80.1289 242.202 80.2939C242.278 80.373 242.372 80.4342 242.475 80.4734C242.577 80.5126 242.688 80.5287 242.798 80.5206C242.906 80.5285 243.014 80.5131 243.116 80.4753C243.217 80.4374 243.309 80.3781 243.386 80.3014C243.532 80.1265 243.605 79.9017 243.59 79.6741C243.597 79.4044 243.518 79.1395 243.363 78.9183C243.2 78.6991 243.013 78.4988 242.805 78.3212L241.598 77.2479C241.379 77.0625 241.202 76.8333 241.077 76.5752C240.955 76.2863 240.896 75.9744 240.904 75.6606C240.891 75.4356 240.925 75.2104 241.004 74.9995C241.083 74.7885 241.206 74.5966 241.364 74.4362C241.53 74.2847 241.724 74.1679 241.935 74.0927C242.146 74.0174 242.37 73.9851 242.594 73.9978C242.85 73.9926 243.105 74.0309 243.348 74.1112C243.554 74.1787 243.741 74.2955 243.892 74.4513C244.047 74.6188 244.165 74.8171 244.239 75.0333C244.33 75.2997 244.388 75.5764 244.412 75.8571L243.56 76.0839C243.546 75.8643 243.511 75.6465 243.454 75.4339C243.406 75.2506 243.309 75.0837 243.175 74.9502C243.013 74.82 242.809 74.7553 242.601 74.7688C242.496 74.7599 242.389 74.7736 242.289 74.8087C242.189 74.8439 242.098 74.8998 242.02 74.9728C241.945 75.0503 241.887 75.1429 241.851 75.2446C241.815 75.3463 241.8 75.4547 241.809 75.5624C241.803 75.7503 241.841 75.937 241.922 76.1066C242.015 76.2716 242.138 76.4178 242.285 76.5374L243.499 77.6107C243.781 77.8537 244.023 78.1394 244.216 78.4572C244.428 78.8103 244.535 79.2167 244.525 79.6287C244.533 79.9474 244.458 80.2626 244.307 80.5433C244.163 80.7943 243.951 80.9989 243.695 81.1328C243.416 81.2669 243.107 81.3292 242.798 81.3142Z" fill="#58595B"/>
<path d="M246.993 81.3142C246.629 81.3297 246.27 81.2377 245.959 81.0497C245.68 80.8649 245.463 80.602 245.333 80.2939C245.182 79.9474 245.098 79.5756 245.084 79.1979L245.974 78.956C245.99 79.2113 246.03 79.4644 246.095 79.7119C246.147 79.9274 246.25 80.1271 246.396 80.2939C246.473 80.373 246.566 80.4342 246.669 80.4734C246.772 80.5126 246.883 80.5287 246.993 80.5206C247.101 80.5285 247.209 80.5131 247.311 80.4753C247.412 80.4374 247.504 80.3781 247.581 80.3014C247.727 80.1265 247.8 79.9017 247.785 79.6741C247.792 79.4044 247.713 79.1395 247.558 78.9183C247.395 78.6991 247.208 78.4988 247 78.3212L245.793 77.2479C245.574 77.0625 245.397 76.8333 245.272 76.5752C245.153 76.2857 245.096 75.9739 245.106 75.6606C245.092 75.4362 245.125 75.2113 245.203 75.0004C245.281 74.7895 245.402 74.5973 245.559 74.4362C245.724 74.2847 245.918 74.1679 246.13 74.0927C246.341 74.0174 246.565 73.9851 246.789 73.9978C247.045 73.9926 247.3 74.0309 247.543 74.1112C247.746 74.1806 247.93 74.2972 248.079 74.4513C248.234 74.6188 248.352 74.8171 248.426 75.0333C248.521 75.2987 248.579 75.5759 248.6 75.8571L247.747 76.0839C247.733 75.8643 247.698 75.6465 247.641 75.4339C247.596 75.2493 247.499 75.0815 247.362 74.9502C247.2 74.82 246.996 74.7553 246.789 74.7688C246.683 74.7626 246.578 74.7775 246.478 74.8125C246.378 74.8476 246.286 74.9021 246.208 74.9728C246.134 75.0509 246.078 75.1439 246.042 75.2456C246.007 75.3472 245.994 75.4552 246.004 75.5624C245.995 75.7496 246.031 75.9363 246.11 76.1066C246.202 76.2716 246.325 76.4178 246.472 76.5374L247.687 77.6107C247.968 77.8537 248.21 78.1394 248.403 78.4572C248.619 78.8088 248.727 79.2163 248.713 79.6287C248.724 79.9478 248.648 80.2639 248.494 80.5433C248.351 80.7943 248.139 80.9989 247.883 81.1328C247.605 81.2657 247.3 81.328 246.993 81.3142V81.3142Z" fill="#58595B"/>
<path d="M218.744 91.9792C218.324 92.0068 217.907 91.8924 217.559 91.6542C217.274 91.4392 217.068 91.1365 216.971 90.7925C216.858 90.3995 216.802 89.9922 216.805 89.5832V87.0436C216.8 86.6146 216.856 86.1871 216.971 85.7738C217.063 85.434 217.272 85.1373 217.559 84.9348C217.904 84.7432 218.29 84.6383 218.685 84.6291C219.079 84.6199 219.469 84.7066 219.823 84.8819C220.085 85.0507 220.287 85.2999 220.396 85.5924C220.518 85.9498 220.577 86.3258 220.57 86.7035V87.2779H219.619V86.7715C219.621 86.5339 219.606 86.2964 219.574 86.061C219.562 85.8822 219.487 85.7135 219.363 85.5848C219.192 85.4566 218.979 85.3973 218.767 85.4186C218.545 85.398 218.324 85.4628 218.148 85.6C218.006 85.7365 217.915 85.9181 217.891 86.1139C217.851 86.3639 217.831 86.6166 217.831 86.8698V89.7268C217.823 90.0143 217.854 90.3015 217.922 90.5809C217.962 90.7605 218.067 90.9191 218.216 91.0268C218.382 91.126 218.574 91.1733 218.767 91.1629C218.871 91.1747 218.976 91.1647 219.076 91.1335C219.176 91.1022 219.269 91.0505 219.348 90.9815C219.476 90.8446 219.555 90.6693 219.574 90.4826C219.606 90.232 219.621 89.9795 219.619 89.7268V89.1902H220.57V89.7268C220.578 90.1188 220.522 90.5094 220.404 90.8832C220.308 91.1889 220.115 91.4545 219.853 91.639C219.528 91.8663 219.14 91.9853 218.744 91.9792V91.9792Z" fill="#58595B"/>
<path d="M223.346 91.9791C222.939 91.9984 222.536 91.8986 222.184 91.6919C221.894 91.4994 221.676 91.2146 221.566 90.8831C221.431 90.4815 221.368 90.0595 221.377 89.636V86.915C221.367 86.5014 221.431 86.0892 221.566 85.6981C221.687 85.3848 221.907 85.1196 222.192 84.9423C222.55 84.761 222.945 84.6665 223.346 84.6665C223.747 84.6665 224.143 84.761 224.501 84.9423C224.783 85.1208 225 85.3859 225.12 85.6981C225.254 86.0892 225.318 86.5014 225.308 86.915V89.6587C225.318 90.0748 225.254 90.4893 225.12 90.8831C225.005 91.2142 224.788 91.5001 224.501 91.6994C224.151 91.9033 223.75 92.0005 223.346 91.9791ZM223.346 91.2233C223.561 91.2395 223.774 91.1808 223.95 91.057C224.094 90.9416 224.19 90.7777 224.222 90.5959C224.277 90.3683 224.302 90.1346 224.297 89.9006V86.6883C224.302 86.4567 224.277 86.2255 224.222 86.0005C224.187 85.8242 224.091 85.6661 223.95 85.5545C223.764 85.4553 223.557 85.4034 223.346 85.4034C223.136 85.4034 222.929 85.4553 222.743 85.5545C222.599 85.6658 222.498 85.8233 222.456 86.0005C222.408 86.2264 222.385 86.4572 222.388 86.6883V89.8476C222.385 90.0812 222.408 90.3145 222.456 90.543C222.496 90.7252 222.597 90.8881 222.743 91.0041C222.912 91.1467 223.126 91.2245 223.346 91.2233V91.2233Z" fill="#58595B"/>
<path d="M226.274 91.9037L226.41 84.7083H227.391L228.666 90.5433L229.941 84.7083H230.914L231.05 91.9037H230.243L230.16 86.681L228.945 91.9037H228.379L227.172 86.681L227.089 91.9037H226.274Z" fill="#58595B"/>
<path d="M232.129 91.9037L232.264 84.7083H233.253L234.52 90.5433L235.796 84.7083H236.769L236.905 91.9037H236.097L236.014 86.681L234.822 91.9037H234.256L233.049 86.681L232.974 91.9037H232.129Z" fill="#58595B"/>
<path d="M239.862 91.9791C239.44 92.0046 239.02 91.8962 238.663 91.6692C238.376 91.4535 238.176 91.1427 238.097 90.7924C237.987 90.3604 237.936 89.9154 237.946 89.4697V84.7004H238.904V89.5151C238.9 89.7985 238.92 90.0817 238.965 90.3616C238.991 90.5864 239.086 90.7976 239.236 90.9663C239.414 91.1085 239.635 91.186 239.862 91.186C240.09 91.186 240.311 91.1085 240.489 90.9663C240.634 90.7952 240.726 90.5848 240.753 90.3616C240.8 90.082 240.823 89.7987 240.821 89.5151V84.7004H241.771V89.4697C241.779 89.9158 241.725 90.3608 241.613 90.7924C241.531 91.1397 241.335 91.4488 241.055 91.6692C240.7 91.8965 240.283 92.0051 239.862 91.9791V91.9791Z" fill="#58595B"/>
<path d="M242.82 91.9037V84.7083H243.507L245.552 89.4851V84.7083H246.382V91.9037H245.74L243.673 86.9908V91.9037H242.82Z" fill="#58595B"/>
<path d="M247.566 91.9037V84.7083H248.547V91.9037H247.566Z" fill="#58595B"/>
<path d="M251.512 91.979C251.092 92.0067 250.675 91.8922 250.327 91.654C250.044 91.4372 249.838 91.1352 249.739 90.7923C249.626 90.3993 249.57 89.992 249.573 89.583V87.0434C249.568 86.6144 249.624 86.1869 249.739 85.7736C249.835 85.4354 250.042 85.1397 250.327 84.9347C250.681 84.711 251.095 84.6052 251.512 84.6323C251.885 84.6139 252.256 84.7003 252.583 84.8818C252.84 85.0548 253.038 85.3029 253.149 85.5922C253.272 85.9496 253.33 86.3257 253.323 86.7033V87.2777H252.372V86.7713C252.373 86.534 252.36 86.2968 252.334 86.0609C252.315 85.8825 252.238 85.7153 252.116 85.5847C251.945 85.4564 251.732 85.3971 251.52 85.4184C251.298 85.3978 251.077 85.4627 250.901 85.5998C250.759 85.7363 250.668 85.9179 250.644 86.1138C250.604 86.3637 250.584 86.6164 250.584 86.8696V89.7266C250.576 90.0141 250.607 90.3013 250.675 90.5807C250.715 90.7603 250.82 90.9189 250.969 91.0267C251.135 91.1258 251.327 91.1731 251.52 91.1627C251.732 91.1825 251.944 91.1173 252.108 90.9813C252.231 90.8417 252.307 90.6674 252.327 90.4825C252.359 90.2319 252.374 89.9793 252.372 89.7266V89.19H253.323V89.7266C253.33 90.118 253.276 90.508 253.164 90.8831C253.065 91.187 252.872 91.4516 252.614 91.6389C252.29 91.8619 251.905 91.9806 251.512 91.979Z" fill="#58595B"/>
<path d="M253.889 91.9037L255.398 84.7083H256.371L257.88 91.9037H256.929L256.605 90.0898H255.194L254.847 91.9037H253.889ZM255.307 89.3717H256.507L255.903 86.1292L255.307 89.3717Z" fill="#58595B"/>
<path d="M248.97 149.315L250.727 141.557H251.86L253.617 149.315H252.51L252.132 147.359H250.49L250.086 149.315H248.97ZM250.621 146.585H252.018L251.315 143.089L250.621 146.585Z" fill="#58595B"/>
<path d="M259.148 91.9035V85.4487H257.933V84.6929H261.336V85.4487H260.151V91.9035H259.148Z" fill="#58595B"/>
<path d="M262.083 91.9037V84.7083H263.064V91.9037H262.083Z" fill="#58595B"/>
<path d="M266.066 91.9792C265.657 91.9983 265.251 91.8985 264.897 91.692C264.608 91.4974 264.39 91.2134 264.278 90.8833C264.147 90.4807 264.084 90.0594 264.089 89.6361V86.9152C264.081 86.501 264.148 86.0888 264.286 85.6983C264.403 85.3846 264.62 85.1188 264.904 84.9424C265.258 84.7437 265.661 84.6494 266.066 84.6703C266.467 84.6517 266.865 84.7487 267.213 84.95C267.495 85.1285 267.712 85.3936 267.832 85.7058C267.967 86.0969 268.031 86.509 268.02 86.9227V89.6664C268.03 90.0825 267.966 90.497 267.832 90.8908C267.717 91.2219 267.501 91.5078 267.213 91.7071C266.866 91.9094 266.467 92.0041 266.066 91.9792V91.9792ZM266.066 91.2234C266.278 91.2398 266.489 91.1809 266.662 91.0571C266.809 90.943 266.908 90.7789 266.941 90.596C266.99 90.3675 267.013 90.1343 267.009 89.9007V86.6884C267.013 86.4573 266.99 86.2266 266.941 86.0006C266.905 85.8232 266.806 85.665 266.662 85.5547C266.484 85.443 266.276 85.3902 266.066 85.4035C265.852 85.3895 265.638 85.4423 265.455 85.5547C265.312 85.665 265.213 85.8232 265.176 86.0006C265.128 86.2266 265.105 86.4573 265.108 86.6884V89.8478C265.105 90.0814 265.128 90.3146 265.176 90.5431C265.213 90.7245 265.312 90.8874 265.455 91.0042C265.626 91.148 265.843 91.2257 266.066 91.2234V91.2234Z" fill="#58595B"/>
<path d="M269.009 91.9037V84.7083H269.696L271.733 89.4851V84.7083H272.548V91.9037H271.906L269.839 86.9908V91.9037H269.009Z" fill="#58595B"/>
<path d="M296.744 159.339H316.301" stroke="#58595B" stroke-miterlimit="10"/>
<path d="M252.749 159.339H292.987" stroke="#58595B" stroke-miterlimit="10"/>
<path d="M213.636 159.339H248.984" stroke="#58595B" stroke-miterlimit="10"/>
<path d="M239.583 164.992H316.301" stroke="#58595B" stroke-miterlimit="10"/>
<path d="M213.636 164.992H236.196" stroke="#58595B" stroke-miterlimit="10"/>
<path d="M305.398 170.646H316.301" stroke="#58595B" stroke-miterlimit="10"/>
<path d="M254.628 170.646H301.634" stroke="#58595B" stroke-miterlimit="10"/>
<path d="M213.636 170.646H250.493" stroke="#58595B" stroke-miterlimit="10"/>
<path d="M310.665 176.292H316.301" stroke="#58595B" stroke-miterlimit="10"/>
<path d="M295.62 176.292H306.9" stroke="#58595B" stroke-miterlimit="10"/>
<path d="M239.961 176.292H292.61" stroke="#58595B" stroke-miterlimit="10"/>
<path d="M213.636 176.292H236.573" stroke="#58595B" stroke-miterlimit="10"/>
<path d="M307.277 74.3608L291.108 80.3924L297.122 83.0302L287.343 95.8415L280.198 87.928L255.005 112.795L239.961 104.125L216.111 125.485H234.377L242.216 116.559L256.507 123.717L277.942 99.6055L290.354 104.881L300.887 85.2901L308.032 89.0542L307.277 74.3608Z" fill="#58595B" stroke="#58595B" stroke-linecap="round" stroke-linejoin="round"/>
<path d="M305.314 118.894C311.113 113.086 311.113 103.667 305.314 97.8584C299.515 92.0495 290.114 92.0495 284.315 97.8584C278.516 103.667 278.516 113.086 284.315 118.894C290.114 124.703 299.515 124.703 305.314 118.894Z" fill="white" stroke="#58595B" stroke-linecap="round" stroke-linejoin="round"/>
<path d="M294.813 121.184C301.876 121.184 307.602 115.449 307.602 108.373C307.602 101.298 301.876 95.5618 294.813 95.5618C287.75 95.5618 282.024 101.298 282.024 108.373C282.024 115.449 287.75 121.184 294.813 121.184Z" fill="white" stroke="#58595B" stroke-linecap="round" stroke-linejoin="round"/>
<path d="M295.1 120.277V118.01C294.444 118.02 293.793 117.891 293.191 117.63C292.589 117.369 292.049 116.984 291.606 116.498C290.832 115.566 290.414 114.135 290.354 112.205L293.809 111.691C293.808 112.329 293.877 112.965 294.013 113.588C294.084 113.98 294.268 114.342 294.541 114.631C294.775 114.842 295.08 114.956 295.394 114.949C295.559 114.97 295.726 114.941 295.873 114.864C296.02 114.787 296.14 114.666 296.216 114.518C296.343 114.233 296.407 113.923 296.405 113.611C296.428 112.934 296.244 112.267 295.877 111.699C295.463 111.113 294.973 110.584 294.421 110.127L292.813 108.743C292.375 108.354 291.965 107.935 291.584 107.489C291.204 107.039 290.903 106.528 290.693 105.977C290.453 105.33 290.337 104.642 290.354 103.951C290.319 103.335 290.41 102.719 290.622 102.139C290.833 101.559 291.16 101.029 291.584 100.581C292.483 99.7304 293.66 99.2385 294.896 99.1973V97.0508H296.043V99.1747C296.785 99.1833 297.511 99.3894 298.148 99.7718C298.65 100.1 299.058 100.553 299.332 101.087C299.596 101.608 299.78 102.166 299.876 102.742C299.968 103.277 300.024 103.817 300.042 104.36L296.541 104.783C296.541 104.246 296.495 103.77 296.443 103.362C296.416 103.028 296.307 102.706 296.126 102.425C296.038 102.312 295.922 102.224 295.79 102.17C295.657 102.115 295.513 102.096 295.371 102.115C295.201 102.106 295.032 102.147 294.883 102.231C294.735 102.315 294.614 102.44 294.534 102.591C294.361 102.879 294.267 103.207 294.262 103.543C294.231 104.175 294.426 104.797 294.813 105.297C295.186 105.742 295.589 106.162 296.02 106.552L297.529 107.889C298.037 108.357 298.508 108.862 298.94 109.401C299.371 109.934 299.717 110.531 299.966 111.17C300.238 111.894 300.369 112.664 300.351 113.437C300.361 114.197 300.19 114.948 299.853 115.629C299.531 116.286 299.042 116.847 298.435 117.254C297.767 117.682 297.006 117.941 296.216 118.01V120.277H295.1Z" fill="#58595B"/>
<path d="M221.151 108.532H217.394V125.485H221.151V108.532Z" fill="#F05A22"/>
<path d="M227.919 114.624H224.161V125.477H227.919V114.624Z" fill="#F05A22"/>
<path d="M234.694 114.994H230.937V125.485H234.694V114.994Z" fill="#F05A22"/>
<path d="M241.462 108.532H237.705V125.485H241.462V108.532Z" fill="#F05A22"/>
<path d="M248.23 112.228H244.472V125.485H248.23V112.228Z" fill="#F05A22"/>
<path d="M254.998 113.891H251.24V125.485H254.998V113.891Z" fill="#F05A22"/>
<path d="M261.765 108.532H258.008V125.485H261.765V108.532Z" fill="#F05A22"/>
<path d="M268.541 103.543H264.784V125.485H268.541V103.543Z" fill="#F05A22"/>
<path d="M275.309 98.3735H271.552V125.485H275.309V98.3735Z" fill="#F05A22"/>
<path d="M289.644 193.177H245.838V197.569H289.644V193.177Z" fill="#58595B" stroke="#58595B" stroke-linecap="round" stroke-linejoin="round"/>
<path d="M303.18 200.955H245.838V205.346H303.18V200.955Z" fill="#58595B" stroke="#58595B" stroke-linecap="round" stroke-linejoin="round"/>
<path d="M289.644 226.986H245.838V231.377H289.644V226.986Z" fill="#58595B" stroke="#58595B" stroke-linecap="round" stroke-linejoin="round"/>
<path d="M303.18 234.763H245.838V239.154H303.18V234.763Z" fill="#58595B" stroke="#58595B" stroke-linecap="round" stroke-linejoin="round"/>
<path d="M234.793 185.838H216.76C214.781 185.838 213.176 187.446 213.176 189.428V207.719C213.176 209.702 214.781 211.31 216.76 211.31H234.793C236.772 211.31 238.376 209.702 238.376 207.719V189.428C238.376 187.446 236.772 185.838 234.793 185.838Z" fill="#E6E7E6"/>
<path d="M225.776 204.9C229.264 204.9 232.091 202.068 232.091 198.574C232.091 195.08 229.264 192.248 225.776 192.248C222.288 192.248 219.461 195.08 219.461 198.574C219.461 202.068 222.288 204.9 225.776 204.9Z" fill="#58595B"/>
<path d="M229.435 198.71L223.942 195.535V201.892L229.435 198.71Z" fill="white"/>
<path d="M234.793 218.724H216.76C214.781 218.724 213.176 220.332 213.176 222.314V240.605C213.176 242.588 214.781 244.196 216.76 244.196H234.793C236.772 244.196 238.376 242.588 238.376 240.605V222.314C238.376 220.332 236.772 218.724 234.793 218.724Z" fill="#E6E7E6"/>
<path d="M231.505 234.112C232.97 230.941 231.59 227.181 228.425 225.715C225.259 224.248 221.506 225.63 220.042 228.801C218.578 231.972 219.957 235.732 223.123 237.199C226.288 238.665 230.041 237.283 231.505 234.112Z" fill="#58595B"/>
<path d="M229.435 231.604L223.942 228.422V234.778L229.435 231.604Z" fill="white"/>
<path d="M214.526 214.922H316.686" stroke="#58595B" stroke-miterlimit="10"/>
<path d="M312.762 29.3813H320.737" stroke="#58595B" stroke-linecap="round" stroke-linejoin="round"/>
<path d="M312.762 33.1682H320.737" stroke="#58595B" stroke-linecap="round" stroke-linejoin="round"/>
<path d="M312.762 36.9473H320.737" stroke="#58595B" stroke-linecap="round" stroke-linejoin="round"/>
<path d="M309.564 26.8645H212.384V39.4717H309.564V26.8645Z" fill="white" stroke="#58595B" stroke-linecap="round" stroke-linejoin="round"/>
<path d="M223.927 31.0895C223.929 30.4984 223.755 29.9201 223.428 29.428C223.101 28.9359 222.636 28.552 222.091 28.3251C221.546 28.0982 220.946 28.0385 220.368 28.1534C219.789 28.2684 219.257 28.5529 218.84 28.9709C218.423 29.3889 218.139 29.9215 218.024 30.5014C217.909 31.0812 217.969 31.6821 218.195 32.228C218.422 32.7738 218.805 33.24 219.296 33.5675C219.787 33.895 220.365 34.069 220.955 34.0675C221.743 34.0675 222.499 33.7537 223.057 33.1953C223.614 32.6368 223.927 31.8793 223.927 31.0895V31.0895Z" fill="white" stroke="#58595B" stroke-linecap="round" stroke-linejoin="round"/>
<path d="M217.363 35.2693L215.168 38.0432" stroke="#58595B" stroke-width="2" stroke-linecap="round" stroke-linejoin="round"/>
<path d="M218.971 33.2437L217.363 35.2693" stroke="#58595B" stroke-linecap="round" stroke-linejoin="round"/>
<path d="M227.066 26.9475V39.5321" stroke="#58595B" stroke-linecap="round" stroke-linejoin="round"/>
<path d="M44.1897 194.84C44.1967 194.823 44.1967 194.804 44.1896 194.787C44.1825 194.77 44.169 194.756 44.152 194.749C44.135 194.742 44.1159 194.742 44.0989 194.749C44.0819 194.757 44.0684 194.77 44.0614 194.787C41.9487 199.85 40.28 205.088 39.0742 210.44C37.8512 215.793 36.9318 221.211 36.3203 226.668L35.9355 230.772C35.8751 231.46 35.7996 232.14 35.7468 232.828L35.6337 234.876C35.5808 236.252 35.4903 237.62 35.4526 238.996L35.4903 243.122L35.5356 245.178C35.5356 245.866 35.6186 246.554 35.6638 247.234C35.7695 248.61 35.8525 249.978 35.9732 251.346C36.2373 254.082 36.6522 256.795 37.0672 259.501C37.0707 259.519 37.0802 259.534 37.094 259.545C37.1078 259.556 37.125 259.562 37.1427 259.562C37.1427 259.562 37.2181 259.562 37.2106 259.494C37.2106 258.126 37.1502 256.758 37.12 255.39C37.0898 254.022 36.9616 252.661 36.9767 251.293C36.9918 249.925 36.9767 248.564 36.9314 247.204V245.156V243.115V239.033L37.037 234.944L37.0823 232.904C37.0823 232.223 37.1578 231.543 37.1955 230.863L37.4445 226.781C37.9087 221.346 38.6795 215.94 39.7532 210.592C40.7767 205.223 42.261 199.953 44.1897 194.84V194.84Z" fill="#58595B"/>
<path d="M44.7709 216.2C44.7769 216.182 44.7755 216.162 44.767 216.145C44.7585 216.128 44.7436 216.115 44.7256 216.109C44.7076 216.103 44.6879 216.105 44.671 216.113C44.654 216.122 44.6411 216.136 44.6351 216.155C43.4807 219.553 42.5135 223.012 41.7378 226.517C40.9652 230.037 40.3909 233.597 40.0175 237.182C39.6553 240.757 39.263 244.339 39.2102 247.93C39.1197 251.529 39.2482 255.131 39.595 258.715C39.5966 258.731 39.6035 258.745 39.6145 258.756C39.6255 258.767 39.6399 258.774 39.6554 258.776C39.6742 258.778 39.6933 258.773 39.7087 258.762C39.7241 258.751 39.7347 258.734 39.7383 258.715C40.1533 255.133 40.4023 251.565 40.6513 247.998C40.9003 244.43 40.938 240.847 41.1719 237.28C41.39 233.722 41.8082 230.179 42.4244 226.668C43.0174 223.139 43.8007 219.644 44.7709 216.2Z" fill="#58595B"/>
<path d="M56.5937 223.713C56.58 223.701 56.5626 223.695 56.5446 223.695C56.5266 223.695 56.5092 223.701 56.4956 223.713C53.5376 225.617 50.8736 227.944 48.5884 230.621C47.4422 231.966 46.41 233.405 45.5025 234.922L44.8687 236.123L44.3707 237.371C44.201 237.775 44.0549 238.189 43.9331 238.61C43.8049 239.041 43.6615 239.464 43.5483 239.887C42.6442 243.306 42.0955 246.809 41.911 250.341C41.7362 253.852 41.8675 257.373 42.3034 260.862C42.3076 260.877 42.3163 260.891 42.3283 260.902C42.3404 260.913 42.3553 260.92 42.3713 260.922C42.3901 260.922 42.4082 260.915 42.4221 260.903C42.4361 260.89 42.4449 260.873 42.4467 260.854L43.3522 250.439C43.6061 246.993 44.0519 243.563 44.6876 240.167C44.7857 239.751 44.9064 239.343 45.0121 238.928C45.1098 238.51 45.2307 238.099 45.3742 237.696L45.7967 236.494L46.34 235.36C47.1617 233.848 48.1081 232.406 49.1694 231.052C51.2833 228.293 53.7839 225.854 56.5937 223.811C56.6003 223.805 56.6055 223.797 56.6091 223.789C56.6127 223.78 56.6146 223.771 56.6146 223.762C56.6146 223.753 56.6127 223.744 56.6091 223.735C56.6055 223.727 56.6003 223.719 56.5937 223.713V223.713Z" fill="#58595B"/>
<path d="M50.8745 237.099C49.3377 238.222 48.1036 239.71 47.283 241.43C46.415 243.112 45.7392 244.886 45.2685 246.72C45.1252 247.174 45.012 247.635 44.9139 248.096L44.5895 249.479C44.4184 250.409 44.3 251.348 44.2348 252.291C44.2348 253.236 44.1971 254.18 44.2348 255.125C44.3023 256.069 44.4258 257.008 44.6045 257.937C44.6045 257.937 44.6045 257.99 44.6574 257.99C44.6764 257.994 44.6964 257.991 44.7133 257.982C44.7302 257.972 44.7426 257.956 44.7479 257.937C44.9643 257.022 45.1305 256.096 45.2459 255.163C45.3892 254.248 45.5326 253.341 45.6458 252.427C45.7589 251.512 45.8947 250.613 45.9702 249.698C46.0456 248.784 46.1588 247.869 46.355 246.977C46.661 245.175 47.1671 243.413 47.864 241.724C48.4973 239.995 49.5317 238.44 50.882 237.189V237.189C50.8886 237.183 50.8939 237.175 50.8975 237.167C50.9011 237.158 50.9029 237.149 50.9029 237.14C50.9029 237.131 50.9011 237.122 50.8975 237.113C50.8939 237.105 50.8886 237.097 50.882 237.091C50.8793 237.093 50.8768 237.096 50.8745 237.099V237.099Z" fill="#58595B"/>
<path d="M34.2906 247.529C33.9058 242.903 33.1437 238.323 32.427 233.75C31.7102 229.177 30.918 224.612 30.0729 220.062C29.2279 215.512 28.2998 210.992 27.3265 206.457C27.3204 206.44 27.3092 206.425 27.2944 206.414C27.2796 206.403 27.2619 206.397 27.2435 206.397C27.2335 206.399 27.224 206.402 27.2155 206.408C27.207 206.413 27.1997 206.421 27.1941 206.429C27.1884 206.438 27.1846 206.447 27.1827 206.457C27.1808 206.467 27.181 206.477 27.1832 206.487C27.9754 211.022 28.6922 215.61 29.3637 220.191C30.0352 224.771 30.7067 229.336 31.2801 233.924C31.8535 238.512 32.2836 243.107 32.8646 247.688L34.5471 261.451C34.5513 261.467 34.56 261.481 34.5721 261.492C34.5841 261.502 34.5991 261.509 34.615 261.512C34.6246 261.513 34.6342 261.512 34.6433 261.509C34.6525 261.506 34.6609 261.501 34.668 261.495C34.6751 261.488 34.6808 261.48 34.6847 261.472C34.6886 261.463 34.6905 261.453 34.6905 261.444C34.7433 260.287 34.7508 259.123 34.7735 257.959C34.7961 256.795 34.7282 255.647 34.7056 254.483C34.6678 252.147 34.4717 249.842 34.2906 247.529Z" fill="#58595B"/>
<path d="M31.5293 247.461C31.2803 245.632 30.9407 243.81 30.5937 241.996L29.9448 239.29C29.7335 238.391 29.5374 237.492 29.2733 236.607C28.3534 233.019 27.1732 229.502 25.7422 226.086L25.1914 224.816L24.5727 223.569C24.1804 222.738 23.7126 221.937 23.2599 221.128C22.3552 219.506 21.236 218.013 19.9326 216.691C19.9262 216.685 19.9186 216.679 19.9102 216.676C19.9018 216.672 19.8927 216.67 19.8835 216.67C19.8744 216.67 19.8653 216.672 19.8569 216.676C19.8484 216.679 19.8408 216.685 19.8345 216.691C19.8279 216.697 19.8226 216.705 19.819 216.714C19.8154 216.722 19.8135 216.731 19.8135 216.74C19.8135 216.749 19.8154 216.759 19.819 216.767C19.8226 216.775 19.8279 216.783 19.8345 216.789V216.789C21.0389 218.159 22.054 219.684 22.8525 221.324C23.2524 222.148 23.6824 222.957 24.022 223.803L24.5652 225.058L25.0481 226.343C26.3235 229.771 27.3498 233.288 28.1189 236.864C28.5414 238.64 28.8206 240.454 29.1677 242.246L29.5977 244.959C29.7562 245.859 29.9448 246.75 30.0731 247.657C30.3598 249.471 30.6918 251.27 31.0087 253.077C31.3255 254.883 31.6198 256.705 31.9971 258.519C32.0018 258.535 32.0116 258.55 32.0251 258.561C32.0386 258.572 32.0552 258.578 32.0725 258.579C32.0912 258.577 32.1085 258.569 32.121 258.555C32.1336 258.541 32.1405 258.522 32.1404 258.504C32.1404 256.659 32.1404 254.808 32.0121 252.963C31.8839 251.119 31.7179 249.298 31.5293 247.461Z" fill="#58595B"/>
<path d="M27.7037 247.68C26.8511 245.254 25.8627 242.881 24.7838 240.553C23.6952 238.231 22.4682 235.977 21.1094 233.803C21.0957 233.791 21.0783 233.785 21.0603 233.785C21.0424 233.785 21.025 233.791 21.0113 233.803C21.0047 233.809 20.9994 233.817 20.9958 233.825C20.9922 233.834 20.9904 233.843 20.9904 233.852C20.9904 233.861 20.9922 233.87 20.9958 233.879C20.9994 233.887 21.0047 233.895 21.0113 233.901C22.187 236.162 23.225 238.492 24.1198 240.878C25.063 243.243 25.908 245.639 26.6097 248.081C27.3114 250.522 27.8471 252.994 28.496 255.442C29.1448 257.891 29.7258 260.355 30.4803 262.827C30.4845 262.843 30.4932 262.857 30.5053 262.867C30.5173 262.878 30.5322 262.885 30.5482 262.887C30.5676 262.886 30.5859 262.877 30.5997 262.863C30.6135 262.85 30.622 262.831 30.6237 262.812C30.6408 260.228 30.3879 257.649 29.8691 255.117C29.3495 252.584 28.6253 250.096 27.7037 247.68V247.68Z" fill="#58595B"/>
<path d="M27.5452 255.775C27.0779 254.263 26.3942 252.827 25.5156 251.512C24.6995 250.155 23.7047 248.914 22.5579 247.823C21.9719 247.299 21.3435 246.823 20.6792 246.403C20.0226 245.964 19.3024 245.63 18.544 245.412C18.5321 245.403 18.5175 245.398 18.5025 245.398C18.4875 245.398 18.4729 245.403 18.461 245.412C18.4493 245.426 18.4429 245.443 18.4429 245.462C18.4429 245.48 18.4493 245.497 18.461 245.511V245.511C19.8454 246.183 21.0701 247.144 22.0524 248.33C23.0397 249.46 23.8696 250.718 24.5196 252.071C25.2213 253.401 25.5835 254.868 26.1871 256.236C26.4587 256.939 26.7228 257.642 27.0397 258.345C27.2997 259.078 27.6098 259.793 27.9677 260.484C27.9733 260.495 27.9819 260.504 27.9926 260.511C28.0032 260.518 28.0155 260.521 28.0281 260.521C28.0376 260.522 28.0473 260.522 28.0564 260.519C28.0655 260.516 28.0739 260.511 28.081 260.504C28.0882 260.498 28.0939 260.49 28.0977 260.481C28.1016 260.473 28.1036 260.463 28.1035 260.453C28.1325 259.664 28.1048 258.873 28.0205 258.088C27.8998 257.317 27.7338 256.546 27.5452 255.775Z" fill="#58595B"/>
<path d="M27.8321 213.071C25.5279 212.424 23.4437 211.159 21.8043 209.413C20.1648 207.667 19.0324 205.505 18.5291 203.162C16.7711 194.999 22.4072 198.498 17.3596 185.702C12.312 172.906 13.4815 169.943 15.2621 166.247C17.0427 162.551 17.9708 163.723 19.525 168.583C21.0793 173.443 26.6702 181.016 28.8432 195.195C31.0161 209.375 27.8321 213.071 27.8321 213.071Z" fill="#F05A22"/>
<path d="M42.7637 199.307C42.7637 199.307 37.7236 197.553 37.5274 188.037C37.3313 178.522 41.217 180.479 41.7979 168.613C42.3789 156.746 43.156 148.409 45.2837 148.205C47.4114 148.001 53.0476 154.033 54.9866 167.245C56.9257 180.456 52.459 189.164 48.5809 193.079C44.7028 196.994 42.7637 199.307 42.7637 199.307Z" fill="#F05A22"/>
<path d="M25.1158 224.529C25.1158 224.529 23.9538 217.538 21.63 214.235C19.3061 210.932 14.2585 208.014 10.9613 201.575C7.66412 195.135 3.98215 192.059 4.17078 201.189C4.3594 210.32 8.47144 215.013 13.4813 218.12C18.4912 221.226 25.1158 224.529 25.1158 224.529Z" fill="#F05A22"/>
<path d="M22.9881 236.577C22.9881 236.577 18.3328 227.636 11.5423 221.03C4.75178 214.424 -0.673095 211.128 1.26598 214.424C3.20505 217.719 5.53646 217.53 8.811 223.358C12.0855 229.185 11.1424 233.455 15.7977 236.758C20.453 240.061 22.9881 236.577 22.9881 236.577Z" fill="#F05A22"/>
<path d="M22.4069 248.035C22.2108 247.453 22.0146 243.175 15.4202 239.683C8.82588 236.191 2.5937 237.544 3.40101 239.29C4.20833 241.036 8.24492 243.954 12.3192 245.707C16.3935 247.461 22.4069 248.035 22.4069 248.035Z" fill="#F05A22"/>
<path d="M42.3791 224.914C42.3791 224.914 39.4667 221.226 41.021 213.456C42.5753 205.686 46.0611 207.621 49.9694 203.547C53.8777 199.473 53.0779 198.884 56.9561 194.613C60.8342 190.343 64.32 188.007 65.8743 189.753C67.4286 191.499 65.1198 196.941 62.7733 200.055C60.4268 203.169 56.7373 204.711 55.017 208.596C53.2967 212.481 54.0437 218.701 49.5846 221.611C45.1255 224.521 42.3791 224.914 42.3791 224.914Z" fill="#F05A22"/>
<path d="M52.0742 227.053C52.0742 227.053 59.0232 219.087 64.101 213.259C69.1788 207.432 71.0801 202.965 71.2763 206.85C71.4725 210.735 73.0192 213.841 68.9449 218.898C64.8706 223.954 52.0742 227.053 52.0742 227.053Z" fill="#F05A22"/>
<path d="M48.3922 239.872C48.3922 239.872 48.196 236.766 59.2495 229.578C70.3029 222.39 74.9582 221.029 73.7963 223.947C72.6344 226.864 67.7603 229.774 62.5467 235.02C57.333 240.265 48.3922 239.872 48.3922 239.872Z" fill="#F05A22"/>
<path d="M28.2924 212.239C28.2924 212.239 25.7044 198.302 23.0109 188.393C20.3173 178.484 18.5518 172.467 18.5518 172.467" stroke="#58595B" stroke-linecap="round" stroke-linejoin="round"/>
<path d="M42.3184 199.42C42.3184 199.42 47.0341 184.304 48.5808 175.188C50.1275 166.073 48.3922 159.256 47.615 155.174" stroke="#58595B" stroke-linecap="round" stroke-linejoin="round"/>
<path d="M24.5047 224.249C22.4184 220.652 20.0279 217.241 17.3595 214.053C13.0966 209.004 9.81451 206.283 7.86035 201.423" stroke="#58595B" stroke-linecap="round" stroke-linejoin="round"/>
<path d="M42.3789 224.914C42.3789 224.914 43.9332 215.595 47.6151 210.735C51.2971 205.875 58.6686 198.302 61.5734 193.449" stroke="#58595B" stroke-linecap="round" stroke-linejoin="round"/>
<path d="M21.9468 247.823C21.9468 247.823 15.4204 243.568 10.7726 241.233" stroke="#58595B" stroke-linecap="round" stroke-linejoin="round"/>
<path d="M59.31 286.983C58.88 275.2 45.8044 267.332 45.8044 267.332H25.7649C25.7649 267.332 12.6893 275.192 12.2442 286.983C11.799 298.774 27.0626 342 27.0626 342H44.4916C44.4916 342 59.7778 298.766 59.31 286.983Z" fill="#58595B" stroke="#58595B" stroke-linecap="round" stroke-linejoin="round"/>
<path d="M48.3845 255.745H22.8144L25.7645 267.331H45.4344L48.3845 255.745Z" fill="#58595B" stroke="#58595B" stroke-linecap="round" stroke-linejoin="round"/>
<path d="M149.752 191.416C149.752 191.416 143.135 198.445 143.135 200.652C143.135 202.859 143.935 208.09 143.535 210.093C143.135 212.095 126.694 224.756 126.694 224.756L131.704 237.408C131.704 237.408 145.134 216.124 149.148 210.501C153.162 204.877 157.569 199.05 157.968 196.034C158.368 193.018 151.555 190.237 149.752 191.416Z" fill="#E6E7E6" stroke="#58595B" stroke-miterlimit="10"/>
<path d="M150.853 243.561L170.342 235.866C170.342 235.866 183.033 221.505 192.751 210.984C202.469 200.463 214.631 202.867 214.631 210.44C214.631 218.013 211.123 229.336 207.886 234.249C204.649 239.162 198.161 251.829 198.161 251.829C198.161 251.829 220.849 257.241 227.058 260.756C233.268 264.27 258.212 282.002 271.038 291.261C279.473 297.308 284.37 299.772 285.721 299.772C286.083 299.772 286.732 299.711 287.501 299.62C290.587 299.258 294.292 296 296.948 294.33C300.592 292.062 306.168 288.925 309.412 288.585C314.543 288.041 312.656 295.614 308.876 301.026C305.096 306.438 298.313 308.063 295.914 309.953C293.515 311.842 288.369 312.931 286.46 313.203C284.551 313.475 267.56 306.438 260.264 303.46C252.968 300.482 239.213 299.802 230.899 289.855C228.144 286.495 225.043 283.434 221.648 280.725C221.648 280.725 176.552 282.614 168.448 283.431C160.345 284.247 141.716 284.783 133.885 284.783C126.053 284.783 122.062 281.677 122.062 281.677C122.062 281.677 119.044 277.475 123.623 270.717C128.203 263.96 150.853 243.561 150.853 243.561Z" fill="#9E9B95" stroke="#58595B" stroke-miterlimit="10"/>
<path d="M308.877 301.064C312.649 295.652 314.543 288.079 309.412 288.623C306.168 288.963 300.592 292.108 296.948 294.368C294.3 296 290.587 299.258 287.502 299.658C286.747 299.749 286.083 299.809 285.721 299.809C284.582 299.809 280.885 298.056 274.66 293.831C273.785 297.474 271.25 302.077 264.459 305.251C272.66 308.6 284.876 313.505 286.46 313.278C288.354 313.006 293.485 311.925 295.914 310.028C298.344 308.131 305.097 306.476 308.877 301.064Z" fill="#E6E7E6" stroke="#58595B" stroke-miterlimit="10"/>
<path d="M308.876 301.064C312.649 295.652 314.543 288.079 309.412 288.623C306.168 288.963 300.592 292.108 296.948 294.368C294.299 296 290.587 299.258 287.501 299.658C286.747 299.749 286.083 299.809 285.721 299.809C285.343 299.778 284.972 299.692 284.619 299.553C285.54 301.744 286.355 306.438 280.092 311.396C283.352 312.583 285.826 313.369 286.483 313.278C288.377 313.006 293.507 311.925 295.937 310.028C298.366 308.131 305.096 306.476 308.876 301.064Z" fill="white" stroke="#58595B" stroke-miterlimit="10"/>
<path d="M168.69 245.518C168.11 245.108 167.508 244.73 166.887 244.385" stroke="#58595B" stroke-miterlimit="10"/>
<path d="M198.153 251.829L173.707 250.393C172.698 249.032 171.53 247.797 170.229 246.712" stroke="#58595B" stroke-miterlimit="10"/>
<path d="M154.543 256.221C155.608 255.261 156.831 254.494 158.157 253.953" stroke="#58595B" stroke-miterlimit="10"/>
<path d="M147.519 264.059C148.999 262.017 150.617 260.08 152.362 258.261" stroke="#58595B" stroke-miterlimit="10"/>
<path d="M150.25 256.682C150.25 256.682 144.795 261.595 143.459 267.883" stroke="#58595B" stroke-miterlimit="10"/>
<path d="M150.853 243.561C150.815 244.298 150.67 245.027 150.423 245.723C149.986 247.03 147.179 257.876 139.596 267.196C134.678 273.064 128.737 277.989 122.061 281.73C112.924 274.624 104.576 266.553 97.1629 257.657C84.3816 242.472 76.7913 227.945 77.2365 211.022C77.6816 194.099 83.0914 183.48 83.0914 183.48L82.6538 170.465C83.5215 168.295 88.0711 165.264 94.1298 169.165C100.188 173.065 104.957 182.18 104.957 182.18L104.089 187.38C104.089 187.38 106.685 189.118 108.201 189.988C109.718 190.857 115.346 195.838 120.326 202.126C125.306 208.415 130.504 227.295 131.372 232.065C132.24 236.834 139.385 237.696 139.385 237.696L146.741 241.611L150.853 243.561Z" fill="#F05A22" stroke="#58595B" stroke-miterlimit="10"/>
<path d="M104.957 182.18L104.089 187.38C104.089 187.38 90.6667 183.042 83.0915 183.48L82.6539 170.465C83.5216 168.295 88.0713 165.264 94.1299 169.165C100.189 173.065 104.957 182.18 104.957 182.18Z" fill="#E6E7E6" stroke="#58595B" stroke-miterlimit="10"/>
<path d="M112.54 147.109C112.54 147.109 116.222 156.716 115.271 159.203C114.722 160.648 114.258 162.124 113.883 163.624C113.883 163.624 119.496 169.739 118.41 171.364C117.323 172.989 114.426 173.737 114.426 173.737C114.426 173.737 113.671 183.911 113.045 185.581C112.419 187.251 110.472 188.997 106.458 187.849C102.444 186.7 96.5669 182.981 94.3864 181.197C92.2059 179.413 90.8629 166.587 90.8629 166.587L95.3899 165.151C95.3899 165.151 94.2958 159.565 94.8466 158.537C95.3974 157.51 101.637 158.243 100.566 154.403C99.4944 150.563 97.2686 148.991 98.5211 147.601C99.7735 146.21 112.54 147.109 112.54 147.109Z" fill="#E6E7E6" stroke="#58595B" stroke-miterlimit="10"/>
<path d="M113.596 177.388C113.596 177.388 107.205 177.947 106.33 172.384" stroke="#58595B" stroke-miterlimit="10"/>
<path d="M108.126 171.923L104.006 173.624" stroke="#58595B" stroke-miterlimit="10"/>
<path d="M110.804 163.881C110.608 165.007 110.05 165.846 109.59 165.763C109.129 165.68 108.903 164.705 109.099 163.579C109.295 162.453 109.854 161.621 110.314 161.704C110.774 161.788 111.001 162.763 110.804 163.881Z" fill="#58595B"/>
<path d="M107.469 160.714C107.469 160.714 110.404 158.001 112.97 160.261" stroke="#58595B" stroke-miterlimit="10"/>
<path d="M117.422 146.399C117.142 148.765 112.54 147.155 112.54 147.155L103.056 149.981C103.056 149.981 103.252 153.927 103.161 156.542C103.071 159.157 97.646 160.918 97.646 160.918L96.8915 172.845L82.556 172.256L80.4962 167.434C80.4962 167.434 71.4422 158.953 72.4306 150.548C73.0342 145.401 76.8972 140.382 83.1143 137.699C85.28 136.778 87.5671 136.175 89.9048 135.908C92.4133 135.621 94.9476 135.647 97.4499 135.983C111.876 137.866 117.701 144.003 117.422 146.399Z" fill="#58595B" stroke="#58595B" stroke-miterlimit="10"/>
<path d="M89.8446 161.644L84.4348 164.667C84.2085 164.252 79.3948 155.371 83.1522 137.684C85.3179 136.763 87.6049 136.159 89.9427 135.893C87.7547 144.366 87.6792 150.601 88.1093 154.494C88.5922 159.248 89.8371 161.621 89.8446 161.644Z" fill="white" stroke="#58595B" stroke-miterlimit="10"/>
<path d="M91.6197 175.715C96.1852 173.92 98.4336 168.757 96.6416 164.184C94.8497 159.61 89.696 157.358 85.1305 159.153C80.565 160.948 78.3166 166.111 80.1086 170.684C81.9005 175.258 87.0542 177.51 91.6197 175.715Z" fill="white" stroke="#58595B" stroke-miterlimit="10"/>
<path d="M91.7459 209.941C94.5762 218.398 98.1253 226.596 102.354 234.445C109.288 247.242 119.708 261.126 123.578 260.257C127.449 259.388 149.337 221.649 150.854 218.399C152.37 215.149 154.754 210.372 154.754 210.372C154.754 210.372 159.734 206.684 160.164 205.165C160.594 203.645 159.591 196.442 159.591 196.442C159.591 196.442 162.231 192.966 161.371 191.446C160.511 189.927 159.055 190.403 157.546 191.272C156.037 192.142 152.74 194.568 152.74 194.568C153.161 192.874 153.192 191.106 152.83 189.398C152.182 187.017 150.205 187.818 149.986 189.338C149.767 190.857 149.775 192.361 149.126 193.873C148.199 195.693 147.531 197.634 147.141 199.64C146.711 202.24 145.542 209.276 145.542 209.276C145.542 209.276 133.553 222.685 130.301 225.95C128.694 227.552 125.291 230.167 125.291 230.167L116.433 212.526C116.433 212.526 111.906 196.48 107.123 192.119C104.807 190.016 101.911 188.663 98.8146 188.236C95.718 187.81 92.5651 188.331 89.7691 189.731" fill="#F05A22"/>
<path d="M91.7459 209.941C94.5762 218.398 98.1253 226.596 102.354 234.445C109.288 247.242 119.708 261.126 123.578 260.257C127.449 259.388 149.337 221.649 150.854 218.399C152.37 215.149 154.754 210.372 154.754 210.372C154.754 210.372 159.734 206.684 160.164 205.165C160.594 203.645 159.591 196.442 159.591 196.442C159.591 196.442 162.231 192.966 161.371 191.446C160.511 189.927 159.055 190.403 157.546 191.272C156.037 192.142 152.74 194.568 152.74 194.568C153.161 192.874 153.192 191.106 152.83 189.398C152.182 187.017 150.205 187.818 149.986 189.338C149.767 190.857 149.775 192.361 149.126 193.873C148.199 195.693 147.531 197.634 147.141 199.64C146.711 202.24 145.542 209.276 145.542 209.276C145.542 209.276 133.553 222.685 130.301 225.95C128.694 227.552 125.291 230.167 125.291 230.167L116.433 212.526C116.433 212.526 111.906 196.48 107.123 192.119C104.807 190.016 101.911 188.663 98.8146 188.236C95.718 187.81 92.5651 188.331 89.7691 189.731" stroke="#58595B" stroke-miterlimit="10"/>
<path d="M152.868 200.063C152.723 200.035 152.585 199.978 152.463 199.896C152.34 199.814 152.235 199.709 152.153 199.586C152.072 199.462 152.015 199.324 151.988 199.179C151.96 199.034 151.962 198.885 151.993 198.74L157.327 173.76C157.389 173.479 157.557 173.233 157.796 173.073C158.036 172.914 158.327 172.854 158.61 172.906V172.906C158.755 172.934 158.892 172.99 159.015 173.072C159.138 173.154 159.243 173.26 159.325 173.383C159.406 173.506 159.462 173.644 159.49 173.79C159.517 173.935 159.516 174.084 159.485 174.229L154.143 199.171C154.092 199.458 153.929 199.714 153.69 199.881C153.451 200.048 153.155 200.113 152.868 200.063V200.063Z" fill="#58595B" stroke="#58595B" stroke-miterlimit="10"/>
<path d="M160.164 205.165C160.594 203.653 159.591 196.442 159.591 196.442C159.591 196.442 162.232 192.966 161.372 191.446C160.511 189.927 159.055 190.403 157.546 191.272C156.037 192.142 152.74 194.568 152.74 194.568C153.161 192.874 153.192 191.106 152.831 189.398C152.182 187.017 150.205 187.818 149.986 189.338C149.767 190.857 149.775 192.361 149.126 193.873C148.199 195.693 147.531 197.634 147.142 199.64C146.712 202.24 145.542 209.276 145.542 209.276C145.542 209.276 143.52 211.544 140.909 214.431L149.564 220.818C150.228 219.624 150.68 218.777 150.854 218.399C152.363 215.142 154.755 210.372 154.755 210.372C154.755 210.372 159.734 206.684 160.164 205.165Z" fill="#E6E7E6" stroke="#58595B" stroke-miterlimit="10"/>
<path d="M152.74 194.568C152.74 194.568 150.25 196.533 149.533 198.045" stroke="#58595B" stroke-miterlimit="10"/>
<path d="M199.987 214.915C199.987 214.915 198.432 223.108 200.96 229.351C203.488 235.594 215.371 258.216 216.148 262.313C216.925 266.409 214.201 273.242 216.344 275.774C218.487 278.306 228.809 279.092 238.542 278.51C248.275 277.928 253.926 276.749 255.096 272.653C256.265 268.556 257.042 266.409 254.122 266.409C251.202 266.409 248.275 266.802 244.382 266.024C240.488 265.245 231.925 260.363 230.755 259.584C229.586 258.806 228.612 256.463 228.612 256.463C228.612 256.463 225.889 248.466 223.157 229.737C220.426 211.007 222.403 203.018 213.621 200.259C204.838 197.5 194.675 208.785 192.751 210.962" fill="#9E9B95"/>
<path d="M199.987 214.915C199.987 214.915 198.432 223.108 200.96 229.351C203.488 235.594 215.371 258.216 216.148 262.313C216.925 266.409 214.201 273.242 216.344 275.774C218.487 278.306 228.809 279.092 238.542 278.51C248.275 277.928 253.926 276.749 255.096 272.653C256.265 268.556 257.042 266.409 254.122 266.409C251.202 266.409 248.275 266.802 244.382 266.024C240.488 265.245 231.925 260.363 230.755 259.584C229.586 258.806 228.612 256.463 228.612 256.463C228.612 256.463 225.889 248.466 223.157 229.737C220.426 211.007 222.403 203.018 213.621 200.259C204.838 197.5 194.675 208.785 192.751 210.962" stroke="#58595B" stroke-miterlimit="10"/>
<path d="M255.096 272.622C256.265 268.526 257.042 266.379 254.122 266.379C251.202 266.379 248.275 266.772 244.382 265.994C240.488 265.215 231.925 260.333 230.755 259.554C229.586 258.776 228.613 256.432 228.613 256.432C227.531 252.924 226.642 249.358 225.949 245.753C219.091 243.372 213.877 247.892 211.297 250.915C213.802 256.16 215.824 260.673 216.148 262.252C216.903 266.349 214.202 273.182 216.344 275.714C218.487 278.246 228.809 279.032 238.542 278.45C248.275 277.868 253.926 276.749 255.096 272.622Z" fill="#E6E7E6" stroke="#58595B" stroke-miterlimit="10"/>
<path d="M254.122 266.409C251.202 266.409 248.275 266.802 244.382 266.024C240.488 265.245 231.925 260.363 230.755 259.584C229.586 258.806 228.613 256.463 228.613 256.463C228.613 256.463 228.379 255.782 227.986 254.354C221.06 253.931 217.22 256.931 215.213 259.577C215.602 260.46 215.915 261.376 216.148 262.313C216.903 266.409 214.202 273.242 216.344 275.774C218.487 278.306 228.809 279.092 238.542 278.51C248.275 277.928 253.926 276.749 255.096 272.653C256.265 268.556 257.042 266.409 254.122 266.409Z" fill="white" stroke="#58595B" stroke-miterlimit="10"/>
<path d="M159.968 312.817H84.1177V317.33H159.968V312.817Z" fill="#9E9B95" stroke="#58595B" stroke-miterlimit="10"/>
<path d="M150.205 289.492L174.756 338.334C174.937 338.697 175.023 339.1 175.005 339.505C174.987 339.91 174.867 340.304 174.654 340.649C174.442 340.994 174.145 341.279 173.792 341.477C173.439 341.675 173.041 341.78 172.636 341.781V341.781C172.212 341.78 171.795 341.666 171.43 341.449C171.065 341.232 170.765 340.921 170.561 340.549L143.444 290.997L150.205 289.492Z" fill="#9E9B95" stroke="#58595B" stroke-miterlimit="10"/>
<path d="M95.2394 276.462L72.9137 338.757C72.7672 339.136 72.7199 339.545 72.7765 339.947C72.8331 340.349 72.9915 340.729 73.2367 341.052C73.4819 341.375 73.8057 341.63 74.1771 341.792C74.5485 341.954 74.9552 342.018 75.3582 341.977V341.977C75.782 341.937 76.1872 341.783 76.5311 341.532C76.8749 341.28 77.1448 340.941 77.3124 340.549L102.075 277.293L95.2394 276.462Z" fill="#9E9B95" stroke="#58595B" stroke-miterlimit="10"/>
<path d="M88.9994 201.854C88.9994 201.854 78.4891 187.561 73.9848 188.31C69.4804 189.058 64.9307 221.037 70.2123 242.48C75.4938 263.923 93.8885 286.084 119.383 292.879C149.05 300.777 174.364 286.832 174.583 284.232C174.801 281.632 147.202 271.065 88.9994 201.854Z" fill="#E6E7E6"/>
<path opacity="0.29" d="M119.383 292.879C149.05 300.777 174.364 286.832 174.583 284.232C174.673 283.136 169.965 280.679 160.247 273.242C111.559 274.973 83.2124 255.669 70.5368 243.848C76.2786 264.852 94.4319 286.227 119.383 292.879Z" fill="#D23E26"/>
<path d="M88.9994 201.854C88.9994 201.854 78.4891 187.561 73.9848 188.31C69.4804 189.058 64.9307 221.037 70.2123 242.48C75.4938 263.923 93.8885 286.084 119.383 292.879C149.05 300.777 174.364 286.832 174.583 284.232C174.801 281.632 147.202 271.065 88.9994 201.854Z" stroke="#58595B" stroke-miterlimit="10"/>
<path d="M309.413 310.414C309.413 310.414 300.736 307.315 280.5 305.879C260.264 304.443 241.077 306.635 240.323 308.517C239.749 309.953 242.692 328.773 244.095 337.54C244.294 338.782 244.928 339.912 245.884 340.728C246.839 341.544 248.054 341.992 249.309 341.992H304.501C305.763 341.992 306.984 341.54 307.941 340.716C308.899 339.893 309.531 338.753 309.722 337.503L313.072 315.644C313.277 314.48 313.02 313.282 312.356 312.306C311.692 311.329 310.674 310.65 309.518 310.414H309.413Z" fill="#E6E7E6"/>
<path opacity="0.29" d="M308.454 340.209C281.692 340.269 267.447 326.914 260.709 315.213C258.083 310.678 253.805 307.927 249.391 306.317C244.049 306.914 240.609 307.738 240.337 308.517C239.764 309.953 242.706 328.773 244.11 337.54C244.309 338.782 244.943 339.912 245.898 340.728C246.854 341.544 248.068 341.992 249.323 341.992H304.515C305.26 341.99 305.996 341.83 306.675 341.523C307.354 341.215 307.96 340.767 308.454 340.209Z" fill="#D23E26"/>
<path d="M309.413 310.414C309.413 310.414 300.736 307.315 280.5 305.879C260.264 304.443 241.077 306.635 240.323 308.517C239.749 309.953 242.692 328.773 244.095 337.54C244.294 338.782 244.928 339.912 245.884 340.728C246.839 341.544 248.054 341.992 249.309 341.992H304.501C305.763 341.992 306.984 341.54 307.941 340.716C308.899 339.893 309.531 338.753 309.722 337.503L313.072 315.644C313.277 314.48 313.02 313.282 312.356 312.306C311.692 311.329 310.674 310.65 309.518 310.414H309.413Z" stroke="#58595B" stroke-miterlimit="10"/>
<path d="M334.696 341.992H349.786" stroke="#58595B" stroke-miterlimit="10"/>
<path d="M2.51874 341.992H328.403" stroke="#58595B" stroke-miterlimit="10"/>
<defs>
<clipPath id="clip0_2_352">
<rect width="25.3002" height="16.8668" fill="white" transform="translate(214.24 45.9783)"/>
</clipPath>
</defs>
</svg>
