<svg width="32" height="32" viewBox="0 0 32 32" fill="none" xmlns="http://www.w3.org/2000/svg">
<path d="M22.4505 31.9799C21.6502 31.8035 20.8498 31.6679 20.063 31.4508C16.8345 30.5555 13.9451 28.982 11.3134 26.9607C6.95899 23.6101 3.54054 19.5134 1.39722 14.4264C0.759655 12.9207 0.25774 11.3607 0.0678264 9.71927C0.0678264 9.65145 0.0271305 9.59719 0 9.52936V7.86083C0.149218 7.169 0.25774 6.46361 0.461219 5.78534C1.15305 3.50638 2.53671 1.74289 4.5308 0.454192C5.62959 -0.251203 6.82333 -0.129115 7.74577 0.779758C9.25152 2.27194 10.7437 3.76412 12.2359 5.26986C13.4568 6.51787 13.2533 8.29492 11.7747 9.23092C11.2049 9.59719 10.6216 9.93632 10.0519 10.3026C9.36004 10.7367 9.14299 11.3335 9.50926 12.0661C10.0654 13.192 10.6894 14.2772 11.2863 15.376C11.3541 15.4981 11.4355 15.593 11.5034 15.7151C11.6661 16.0271 11.5847 16.2849 11.3134 16.4883C11.0421 16.6783 10.7573 16.624 10.5267 16.3798C10.4588 16.2984 10.391 16.217 10.3367 16.1221C9.68561 14.9419 8.99378 13.7889 8.42404 12.568C7.80003 11.2522 8.23412 10.0448 9.46856 9.25805L10.0654 8.89179L3.77115 2.57037C2.69949 3.60133 1.93983 4.89004 1.50575 6.38222C0.908873 8.40344 1.23444 10.3568 1.87201 12.2967C3.03862 15.8643 4.97846 18.9708 7.44733 21.7517C9.99761 24.6275 12.9413 27.015 16.3869 28.7378C18.3131 29.7009 20.3208 30.4606 22.4912 30.7454C24.8923 31.0574 27.958 29.918 29.4095 28.1952L23.1152 21.9009C22.966 22.1315 22.8032 22.4028 22.6269 22.6741C21.935 23.7186 20.7142 24.0849 19.5611 23.6101C16.7531 22.4435 14.3114 20.7343 12.2494 18.496C12.0188 18.2518 11.8832 17.9941 12.0595 17.6821C12.263 17.3023 12.7107 17.2887 13.0634 17.6278C13.6738 18.2111 14.2571 18.8216 14.8947 19.3777C16.4004 20.6936 18.0961 21.6974 19.941 22.4842C20.687 22.7962 21.2703 22.6198 21.7044 21.928C22.0707 21.3583 22.4098 20.775 22.7625 20.2052C23.685 18.7537 25.4756 18.5231 26.6965 19.7169C28.2293 21.2226 29.7351 22.7284 31.2408 24.2612C32.1361 25.1701 32.2447 26.3774 31.5393 27.4491C29.83 30.0401 27.429 31.5322 24.3497 31.9256C24.2683 31.9256 24.2004 31.9663 24.1191 31.9935H22.4505V31.9799ZM23.8613 20.6936L30.2913 27.1235C30.9153 26.3232 30.9695 25.6992 30.3998 25.1159C28.8805 23.5694 27.3476 22.0365 25.8012 20.5172C25.1907 19.9068 24.3225 20.0289 23.8613 20.6936ZM4.81567 1.7022L11.2592 8.1457C11.9374 7.69805 12.0731 6.80274 11.4762 6.1923C9.94335 4.6323 8.3969 3.09942 6.85046 1.56654C6.38924 1.11889 5.79237 1.07819 5.24976 1.41733C5.10054 1.51228 4.96489 1.60724 4.81567 1.7022Z" fill="#58595B"/>
</svg>
