<svg width="32" height="32" viewBox="0 0 32 32" fill="none" xmlns="http://www.w3.org/2000/svg">
<path d="M32 2.83V23.66C31.6093 25.12 30.5874 25.5 29.3751 25.48C26.129 25.44 22.8729 25.47 19.6268 25.47H19.216C19.2661 25.82 19.2862 26.13 19.3563 26.43C19.6569 27.85 20.4283 28.69 21.9712 28.66C22.3719 28.66 22.7827 28.65 23.1835 28.7C24.2655 28.85 24.8566 30.04 24.3456 31C24.005 31.63 23.454 31.86 22.7627 31.86C18.2542 31.86 13.7458 31.86 9.23732 31.86C9.14715 31.86 9.04697 31.86 8.9568 31.85C8.11522 31.78 7.51409 31.15 7.48403 30.32C7.45398 29.51 8.03506 28.8 8.86662 28.71C9.33751 28.66 9.81841 28.68 10.2993 28.66C10.9004 28.64 11.4515 28.47 11.8823 28.03C12.5636 27.33 12.7038 26.44 12.774 25.48H12.3632C9.00688 25.48 5.66062 25.48 2.30432 25.48C0.891675 25.48 0 24.59 0 23.18C0 16.55 0 9.92 0 3.29C0 1.9 0.881652 1 2.28428 1C11.4314 1 20.5686 1 29.7157 1C30.0864 1 30.4872 1.09 30.8278 1.24C31.5091 1.53 31.8297 2.13 32 2.83ZM3.21603 4.2V20.1H28.784V4.2H3.21603ZM1.10206 21.24C1.10206 21.24 1.07201 21.3 1.07201 21.32C1.07201 21.9 1.07201 22.48 1.07201 23.07C1.07201 24.04 1.44271 24.41 2.40451 24.41C11.4715 24.41 20.5385 24.41 29.6155 24.41C29.7157 24.41 29.8259 24.41 29.9261 24.41C30.4371 24.37 30.8879 24.01 30.918 23.5C30.958 22.76 30.928 22.01 30.928 21.25H1.10206V21.24ZM30.938 20.12V19.77C30.938 14.3 30.938 8.83 30.938 3.36C30.938 2.44 30.5573 2.06 29.6255 2.06C20.5385 2.06 11.4615 2.06 2.37445 2.06C1.45273 2.06 1.06199 2.44 1.06199 3.36C1.06199 8.83 1.06199 14.3 1.06199 19.77V20.12H2.12399V19.73C2.12399 14.47 2.12399 9.21 2.12399 3.95C2.12399 3.27 2.26425 3.13 2.94553 3.13C11.6418 3.13 20.3381 3.13 29.0344 3.13C29.7157 3.13 29.856 3.27 29.856 3.95C29.856 9.21 29.856 14.47 29.856 19.73V20.13H30.918L30.938 20.12ZM13.856 25.48C13.7758 26.64 13.5153 27.71 12.774 28.62H19.2361C18.4646 27.69 18.2442 26.6 18.144 25.48H13.856ZM15.99 30.79C18.2041 30.79 20.4283 30.79 22.6425 30.79C22.7627 30.79 22.8929 30.79 23.0132 30.77C23.3137 30.72 23.484 30.49 23.444 30.19C23.4039 29.9 23.1935 29.73 22.8128 29.73C22.2217 29.73 21.6306 29.75 21.0294 29.75C17.1321 29.75 13.2348 29.74 9.34753 29.73C8.80651 29.73 8.55604 29.9 8.54602 30.26C8.54602 30.63 8.78647 30.8 9.32749 30.8C11.5416 30.8 13.7658 30.8 15.98 30.8L15.99 30.79Z" fill="#58595B"/>
<path d="M24.1553 15.35C24.5961 15.79 24.9868 16.17 25.3676 16.55C25.7383 16.92 25.7383 17.17 25.3676 17.53C24.9368 17.97 24.5059 18.4 24.0651 18.83C23.7345 19.16 23.464 19.16 23.1234 18.83C22.7326 18.44 22.3419 18.05 21.9211 17.63C21.7007 17.86 21.5103 18.07 21.2999 18.27C20.8291 18.74 20.4283 18.63 20.2279 17.99C20.0977 17.56 19.9574 17.14 19.8472 16.71C19.7871 16.48 19.6869 16.43 19.4565 16.43C15.5492 16.43 11.6519 16.43 7.74452 16.43C7.06325 16.43 6.92298 16.29 6.92298 15.61C6.92298 12.41 6.92298 9.21 6.92298 6.01C6.92298 5.41 7.07326 5.25 7.67439 5.25C12.5034 5.25 17.3325 5.25 22.1716 5.25C22.7727 5.25 22.933 5.41 22.933 6C22.933 8.32 22.933 10.63 22.933 12.95C22.933 13.19 22.9931 13.3 23.2336 13.36C23.6844 13.47 24.1353 13.62 24.5761 13.75C25.1271 13.92 25.2373 14.35 24.8265 14.76C24.6162 14.96 24.3957 15.15 24.1553 15.35ZM21.851 9H8.01503V15.35H19.4264C19.186 14.56 18.9656 13.79 18.7251 13.01C18.655 12.76 18.6149 12.52 18.8253 12.32C19.0357 12.12 19.2761 12.16 19.5266 12.24C20.2981 12.47 21.0695 12.7 21.851 12.93V9ZM8.00501 7.88H21.841V6.34H8.00501V7.88ZM23.5241 17.74L24.3056 16.98C23.9349 16.62 23.5441 16.25 23.1634 15.86C22.8529 15.54 22.8529 15.22 23.1634 14.9C23.2636 14.79 23.4139 14.72 23.5341 14.63L23.464 14.52L20.0075 13.51L21.0394 16.99C21.1296 16.9 21.1998 16.85 21.2599 16.79C21.7708 16.29 22.0914 16.29 22.6024 16.8C22.923 17.12 23.2336 17.43 23.5241 17.73V17.74Z" fill="#58595B"/>
<path d="M16 22.29C16.511 22.29 17.0219 22.29 17.5329 22.29C17.9036 22.29 18.134 22.5 18.144 22.82C18.144 23.13 17.9136 23.35 17.5429 23.35C16.521 23.35 15.5091 23.35 14.4872 23.35C14.1265 23.35 13.886 23.12 13.8961 22.8C13.8961 22.5 14.1265 22.29 14.4872 22.29C14.9981 22.29 15.5091 22.29 16.01 22.29H16Z" fill="#58595B"/>
<path d="M11.722 14.3C11.0708 14.3 10.4095 14.3 9.75829 14.3C9.26737 14.3 9.07702 14.1 9.067 13.62C9.067 13.01 9.067 12.4 9.067 11.78C9.067 11.3 9.25735 11.11 9.71822 11.11C11.0607 11.11 12.4033 11.11 13.7458 11.11C14.2066 11.11 14.387 11.29 14.397 11.75C14.397 12.38 14.397 13.02 14.397 13.65C14.397 14.11 14.1966 14.3 13.7157 14.3C13.0545 14.3 12.3832 14.3 11.722 14.3ZM10.159 12.18V13.21H13.3049V12.18H10.159Z" fill="#58595B"/>
</svg>
